<?xml version="1.0" standalone="no"?>
<!DOCTYPE svg PUBLIC "-//W3C//DTD SVG 1.1//EN" "http://www.w3.org/Graphics/SVG/1.1/DTD/svg11.dtd" >
<svg xmlns="http://www.w3.org/2000/svg">
<metadata>Generated by IcoMoon</metadata>
<defs>
<font id="icomoon" horiz-adv-x="1024">
<font-face units-per-em="1024" ascent="960" descent="-64" />
<missing-glyph horiz-adv-x="1024" />
<glyph unicode="&#x20;" horiz-adv-x="512" d="" />
<glyph unicode="&#xe900;" glyph-name="Fleche" d="M583.27 868.25h-142.541c-175.309 0-317.85-142.541-317.85-317.85s142.541-317.85 317.85-317.85h142.541c175.309 0 317.85 142.541 317.85 317.85s-142.541 317.85-317.85 317.85zM722.236 523.159l-128.833-139.837c-6.692-7.265-15.895-10.896-25.096-10.896-9.204 0-17.569 3.631-25.098 10.896-13.385 14.529-13.385 39.043 0 53.573l69.436 75.369h-271.052c-19.24 0-35.137 17.252-35.137 38.137s15.896 38.137 35.137 38.137h271.051l-69.436 75.367c-13.385 14.53-13.385 39.045 0 53.575s35.972 14.529 49.356 0l129.671-139.839c14.223-15.434 14.223-39.044 0.001-54.481z" />
<glyph unicode="&#xe901;" glyph-name="Moins" d="M583.27 868.25h-142.541c-175.309 0-317.85-142.541-317.85-317.85s142.541-317.85 317.85-317.85h142.541c175.309 0 317.85 142.541 317.85 317.85s-142.541 317.85-317.85 317.85zM656.815 520.278c-7.53-7.53-18.536-12.744-30.122-12.744h-229.387c-23.17 0-42.865 19.695-42.865 42.865s19.695 42.866 42.866 42.866h229.387c23.171 0 42.866-19.695 42.866-42.866-0.001-11.585-5.215-22.59-12.745-30.121z" />
<glyph unicode="&#xe902;" glyph-name="Plus" d="M583.27 868.25h-142.541c-175.309 0-317.85-142.541-317.85-317.85s142.541-317.85 317.85-317.85h142.541c175.309 0 317.85 142.541 317.85 317.85s-142.541 317.85-317.85 317.85zM626.693 593.266c23.171 0 42.866-19.695 42.866-42.866 0-11.586-5.214-22.591-12.744-30.122s-18.536-12.744-30.122-12.744h-71.827v-71.828c0-11.585-5.214-22.591-12.745-30.122s-18.536-12.743-30.121-12.743c-23.17 0-42.866 19.695-42.866 42.865v71.828h-71.828c-23.17 0-42.865 19.695-42.865 42.865s19.695 42.866 42.866 42.866h71.828v71.828c0 23.17 19.695 42.866 42.866 42.866 23.17 0 42.865-19.695 42.865-42.865l0.001-71.828h71.826z" />
<glyph unicode="&#xe903;" glyph-name="Map" horiz-adv-x="819" d="M571.018 613.498l-44.424-44.398 44.424-44.347-44.424-44.451 44.424-44.397 44.422 44.397 44.397-44.397 44.398 44.397-44.398 44.451 44.398 44.347-44.398 44.398-44.397-44.398zM614.39 801.592l-204.79 62.797-204.765-62.797-204.814 62.797v-565.13l204.816-62.848 204.766 62.848 204.789-62.848 204.789 62.848v565.13l-204.79-62.797zM756.382 345.658l-124.243-38.101v105.795l-16.699 16.754-18.8-18.8v-103.749l-169.293 51.901v94.646l-35.501 1.301v-95.947l-0.675-0.2-168.611-51.696v127.243l-35.501-7.95v-119.299l-124.219 38.101v93.997c36.998 16.95 78.922 30.701 124.219 40.998v64.198c-44.422-9.35-86.221-21.701-124.219-36.901v271.493l124.219-38.099v-151.795l35.501 7.949v143.845l0.675 0.2 168.618 51.747v-179.043l35.498-1.301v180.347l169.291-51.947v-103.246l18.8-18.8 16.699 16.749v105.296l0.65 0.2 123.594 37.899v-433.784zM222.56 487.901c53.272 9.6 110.419 14.646 169.293 14.75v62.798c-58.472-0.101-115.518-4.85-169.293-13.901v-63.648zM427.349 502.051c26-0.901 51.597-2.701 76.547-5.501v63.147c-25.048 2.65-50.597 4.35-76.547 5.2v-62.846z" />
<glyph unicode="&#xe904;" glyph-name="Science" horiz-adv-x="819" d="M499.968 641.024c-23.149 23.079-55.092 37.349-90.368 37.349-70.692 0-128-57.308-128-128s57.308-128 128-128c70.692 0 128 57.308 128 128 0 0.010 0 0.019 0 0.029v-0.001c-0.008 35.407-14.39 67.453-37.629 90.621l-0.003 0.003zM482.048 597.248c-0.044 0-0.097 0-0.149 0-14.138 0-25.6 11.462-25.6 25.6 0 7.106 2.896 13.536 7.571 18.175l70.658 70.658c4.447 3.826 10.277 6.156 16.652 6.156 14.138 0 25.6-11.462 25.6-25.6 0-6.374-2.33-12.204-6.184-16.685l0.028 0.034-70.656-70.656c-4.567-4.658-10.893-7.577-17.901-7.68h-0.019zM665.6 729.6c0-42.415-34.385-76.8-76.8-76.8s-76.8 34.385-76.8 76.8c0 42.415 34.385 76.8 76.8 76.8s76.8-34.385 76.8-76.8zM409.6 371.2c-14.138 0-25.6 11.462-25.6 25.6v0 51.2c0 14.138 11.462 25.6 25.6 25.6s25.6-11.462 25.6-25.6v0-51.2c0-14.138-11.462-25.6-25.6-25.6v0zM486.4 345.6c0-42.415-34.385-76.8-76.8-76.8s-76.8 34.385-76.8 76.8c0 42.415 34.385 76.8 76.8 76.8s76.8-34.385 76.8-76.8zM337.152 597.248c-0.044 0-0.096 0-0.148 0-7.033 0-13.403 2.836-18.030 7.426l-70.654 70.654c-4.652 4.652-7.529 11.078-7.529 18.176 0 14.196 11.508 25.705 25.705 25.705 7.098 0 13.524-2.877 18.176-7.529l70.656-70.656c4.677-4.64 7.573-11.070 7.573-18.176 0-14.138-11.462-25.6-25.6-25.6-0.052 0-0.105 0-0.157 0h0.008zM307.2 729.6c0-42.415-34.385-76.8-76.8-76.8s-76.8 34.385-76.8 76.8c0 42.415 34.385 76.8 76.8 76.8s76.8-34.385 76.8-76.8zM646.144 396.8c-0.038 0-0.083 0-0.128 0-4.455 0-8.644 1.138-12.293 3.139l0.133-0.067-147.456 78.848c-8.146 4.589-13.557 13.183-13.557 23.040 0 14.556 11.8 26.357 26.357 26.357 4.699 0 9.111-1.23 12.932-3.385l-0.132 0.068 146.688-79.872c8.067-4.416 13.446-12.845 13.446-22.531 0-14.138-11.462-25.6-25.6-25.6-0.137 0-0.274 0.001-0.411 0.003h0.021zM768 396.8c0-42.415-34.385-76.8-76.8-76.8s-76.8 34.385-76.8 76.8c0 42.415 34.385 76.8 76.8 76.8s76.8-34.385 76.8-76.8zM179.2 480.256c-0.498-0.034-1.079-0.054-1.664-0.054-14.168 0-25.654 11.486-25.654 25.654 0 13.583 10.556 24.7 23.912 25.596l0.078 0.004 131.328 17.152c1 0.137 2.155 0.215 3.328 0.215 14.257 0 25.815-11.558 25.815-25.815 0-13.084-9.734-23.895-22.355-25.586l-0.132-0.014-132.352-17.408zM204.8 499.2c0-42.415-34.385-76.8-76.8-76.8s-76.8 34.385-76.8 76.8c0 42.415 34.385 76.8 76.8 76.8s76.8-34.385 76.8-76.8z" />
<glyph unicode="&#xe905;" glyph-name="Delete" horiz-adv-x="819" d="M480.87 868.25h-142.541c-175.309 0-317.85-142.541-317.85-317.85s142.541-317.85 317.85-317.85h142.541c175.309 0 317.85 142.541 317.85 317.85s-142.541 317.85-317.85 317.85zM521.011 499.61c16.384-16.384 16.384-44.237 0-60.621-8.192-8.192-19.661-12.288-30.31-12.288s-22.118 4.096-30.31 12.288l-50.79 50.79-50.79-50.79c-8.192-8.192-19.661-12.288-30.31-12.288s-22.118 4.096-30.31 12.288c-16.384 16.384-16.384 44.237 0 60.621l50.79 50.79-50.79 50.79c-16.384 16.384-16.384 44.237 0 60.621s44.237 16.384 60.621 0l50.79-50.79 50.79 50.79c16.384 16.384 44.237 16.384 60.621 0s16.384-44.237 0-60.621l-50.79-50.79 50.79-50.79z" />
<glyph unicode="&#xe906;" glyph-name="Plus-2" horiz-adv-x="819" d="M480.87 868.25h-142.541c-175.309 0-317.85-142.541-317.85-317.85s142.541-317.85 317.85-317.85h142.541c175.309 0 317.85 142.541 317.85 317.85s-142.541 317.85-317.85 317.85zM524.288 507.802h-71.27v-71.27c0-23.757-18.842-42.598-42.598-42.598-11.469 0-22.938 4.915-30.31 12.288s-12.288 18.842-12.288 30.31v71.27h-71.27c-11.469 0-22.938 4.915-30.31 12.288s-12.288 18.842-12.288 30.31c0 23.757 18.842 42.598 42.598 42.598h71.27v71.27c0 23.757 18.842 42.598 42.598 42.598s42.598-18.842 42.598-42.598v-71.27h71.27c23.757 0 42.598-18.842 42.598-42.598s-18.842-42.598-42.598-42.598z" />
<glyph unicode="&#xe907;" glyph-name="Continue" horiz-adv-x="819" d="M798.72 550.4c0-215.45-174.49-389.939-389.939-389.939-203.981 0-371.098 156.467-388.301 356.352h445.645l-117.965-118.784c-13.107-13.107-13.107-34.406 0-47.514 6.554-6.554 14.746-9.83 23.757-9.83s17.203 3.277 23.757 9.83l176.128 176.128c13.107 13.107 13.107 34.406 0 47.514l-176.128 176.128c-13.107 13.107-34.406 13.107-47.514 0s-13.107-34.406 0-47.514l118.784-118.784h-446.464c17.203 199.885 184.32 356.352 388.301 356.352 215.45 0 389.939-174.49 389.939-389.939z" />
<glyph unicode="&#xe908;" glyph-name="Next" horiz-adv-x="819" d="M630.784 939.52h-442.368c-92.57 0-167.936-75.366-167.936-167.936v-442.368c0-92.57 75.366-167.936 167.936-167.936h442.368c92.57 0 167.936 75.366 167.936 167.936v442.368c0 92.57-75.366 167.936-167.936 167.936zM607.846 525.824l-126.157-126.157c-6.554-6.554-15.565-9.83-24.576-9.83s-17.203 3.277-24.576 9.83c-13.107 13.107-13.107 35.226 0 48.333l67.994 67.994h-265.421c-18.842 0-34.406 15.565-34.406 34.406s15.565 34.406 34.406 34.406h265.421l-67.994 67.994c-13.107 13.107-13.107 35.226 0 48.333s35.226 13.107 48.333 0l126.976-126.157c13.926-13.926 13.926-35.226 0-49.152z" />
<glyph unicode="&#xe909;" glyph-name="Texting" horiz-adv-x="819" d="M626.688 873.165c-95.027 0-172.032-77.005-172.032-172.032 0-42.598 15.565-81.92 40.96-111.411l-43.418-39.322c-8.192-7.373-2.458-20.48 8.192-20.48h165.478c95.027 0 172.032 77.005 172.032 172.032 0.819 94.208-76.186 171.213-171.213 171.213zM537.395 674.918c-14.746 0-26.214 11.469-26.214 26.214s11.469 26.214 26.214 26.214c14.746 0 26.214-11.469 26.214-26.214s-12.288-26.214-26.214-26.214zM626.688 674.918c-14.746 0-26.214 11.469-26.214 26.214s11.469 26.214 26.214 26.214c14.746 0 26.214-11.469 26.214-26.214s-11.469-26.214-26.214-26.214zM716.8 674.918c-14.746 0-26.214 11.469-26.214 26.214s11.469 26.214 26.214 26.214c14.746 0 26.214-11.469 26.214-26.214s-11.469-26.214-26.214-26.214zM367.821 523.366c-3.277 2.458-8.192 1.638-11.469-0.819-30.31-22.118-67.994-35.226-108.954-35.226s-77.824 13.107-108.954 35.226c-3.277 2.458-7.373 2.458-11.469 0.819-70.451-45.875-106.496-136.806-106.496-241.664 0-72.090 455.475-72.090 455.475 0 0 104.858-36.045 195.789-108.134 241.664zM384.205 671.642c0-75.104-60.884-135.987-135.987-135.987s-135.987 60.884-135.987 135.987c0 75.104 60.884 135.987 135.987 135.987s135.987-60.884 135.987-135.987z" />
<glyph unicode="&#xe90a;" glyph-name="Calendar" horiz-adv-x="819" d="M388.301 492.237h-64.717c-13.107 0-22.938-10.65-22.938-22.938v-39.322c0-13.107 10.65-22.938 22.938-22.938h64.717c13.107 0 22.938 10.65 22.938 22.938v39.322c0 12.288-9.83 22.938-22.938 22.938zM222.822 492.237h-64.717c-13.107 0-22.938-10.65-22.938-22.938v-39.322c0-13.107 10.65-22.938 22.938-22.938h64.717c13.107 0 22.938 10.65 22.938 22.938v39.322c0 12.288-9.83 22.938-22.938 22.938zM388.301 636.416h-64.717c-13.107 0-22.938-10.65-22.938-22.938v-39.322c0-13.107 10.65-22.938 22.938-22.938h64.717c13.107 0 22.938 10.65 22.938 22.938v39.322c0 13.107-9.83 22.938-22.938 22.938zM222.822 636.416h-64.717c-13.107 0-22.938-10.65-22.938-22.938v-39.322c0-13.107 10.65-22.938 22.938-22.938h64.717c13.107 0 22.938 10.65 22.938 22.938v39.322c0 13.107-9.83 22.938-22.938 22.938zM553.779 636.416h-64.717c-13.107 0-22.938-10.65-22.938-22.938v-39.322c0-13.107 10.65-22.938 22.938-22.938h64.717c13.107 0 22.938 10.65 22.938 22.938v39.322c0.819 13.107-9.83 22.938-22.938 22.938zM692.224 508.621v283.443c0 19.661-7.373 37.683-19.661 51.61v0.819h-0.819c-14.746 16.384-35.226 26.214-58.163 26.214h-57.344v36.045c0 14.746-11.469 26.214-26.214 26.214h-39.322c-14.746 0-26.214-11.469-26.214-26.214v-35.226h-215.45v35.226c0 14.746-11.469 26.214-26.214 26.214h-39.322c-14.746 0-26.214-11.469-26.214-26.214v-35.226h-57.344c-22.938 0-44.237-10.65-58.163-26.214h-1.638v-0.819c-12.288-13.926-19.661-31.949-19.661-51.61v-421.069c0-43.418 35.226-78.643 78.643-78.643h352.256c22.938-72.090 90.112-123.699 169.574-123.699 98.304 0 177.766 79.462 177.766 177.766 0 71.27-44.237 133.53-106.496 161.382zM443.187 345.6c0-0.819 0-0.819 0-1.638h-344.064c-14.746 0-26.214 11.469-26.214 26.214v322.765h566.067v-170.394c-5.734 0.819-12.288 0.819-18.842 0.819-97.485 0-176.947-79.462-176.947-177.766zM620.954 221.082c-68.813 0-125.338 56.525-125.338 125.338s56.525 125.338 125.338 125.338 125.338-57.344 125.338-126.157-56.525-124.518-125.338-124.518zM663.552 371.814h-85.197c-14.746 0-26.214-11.469-26.214-26.214s11.469-26.214 26.214-26.214h85.197c14.746 0 26.214 11.469 26.214 26.214s-11.469 26.214-26.214 26.214z" />
<glyph unicode="&#xe90b;" glyph-name="Calendar-2" horiz-adv-x="819" d="M388.301 492.237h-64.717c-13.107 0-22.938-10.65-22.938-22.938v-39.322c0-13.107 10.65-22.938 22.938-22.938h64.717c13.107 0 22.938 10.65 22.938 22.938v39.322c0 12.288-9.83 22.938-22.938 22.938zM222.822 492.237h-64.717c-13.107 0-22.938-10.65-22.938-22.938v-39.322c0-13.107 10.65-22.938 22.938-22.938h64.717c13.107 0 22.938 10.65 22.938 22.938v39.322c0 12.288-9.83 22.938-22.938 22.938zM388.301 637.235h-64.717c-13.107 0-22.938-10.65-22.938-22.938v-39.322c0-13.107 10.65-22.938 22.938-22.938h64.717c13.107 0 22.938 10.65 22.938 22.938v39.322c0 12.288-9.83 22.938-22.938 22.938zM222.822 637.235h-64.717c-13.107 0-22.938-10.65-22.938-22.938v-39.322c0-13.107 10.65-22.938 22.938-22.938h64.717c13.107 0 22.938 10.65 22.938 22.938v39.322c0 12.288-9.83 22.938-22.938 22.938zM553.779 637.235h-64.717c-13.107 0-22.938-10.65-22.938-22.938v-39.322c0-13.107 10.65-22.938 22.938-22.938h64.717c13.107 0 22.938 10.65 22.938 22.938v39.322c0.819 12.288-9.83 22.938-22.938 22.938zM692.224 508.621v283.443c0 19.661-7.373 37.683-19.661 51.61v1.638h-0.819c-14.746 16.384-35.226 26.214-58.163 26.214h-57.344v34.406c0 14.746-11.469 26.214-26.214 26.214h-39.322c-14.746 0-26.214-11.469-26.214-26.214v-35.226h-214.63v35.226c0 14.746-11.469 26.214-26.214 26.214h-39.322c-14.746 0-26.214-11.469-26.214-26.214v-35.226h-58.163c-22.938 0-44.237-10.65-58.163-26.214h-1.638v-0.819c-12.288-13.926-19.661-31.949-19.661-51.61v-421.069c0-43.418 35.226-78.643 78.643-78.643h352.256c22.938-72.090 90.112-123.699 169.574-123.699 98.304 0 177.766 79.462 177.766 177.766 0 72.090-44.237 135.168-106.496 162.202zM443.187 345.6c0 0 0-0.819 0-0.819h-344.064c-14.746 0-26.214 11.469-26.214 26.214v321.946h566.067v-170.394c-5.734 0.819-12.288 0.819-18.842 0.819-97.485 0-176.947-79.462-176.947-177.766zM620.954 221.082c-68.813 0-125.338 56.525-125.338 125.338s56.525 125.338 125.338 125.338 125.338-56.525 125.338-126.157-56.525-124.518-125.338-124.518zM677.478 372.634h-30.31v29.491c0 14.746-11.469 26.214-26.214 26.214s-26.214-11.469-26.214-26.214v-29.491h-29.491c-14.746 0-26.214-11.469-26.214-26.214s11.469-26.214 26.214-26.214h29.491v-29.491c0-14.746 11.469-26.214 26.214-26.214s26.214 11.469 26.214 26.214v29.491h29.491c14.746 0 26.214 11.469 26.214 26.214s-11.469 26.214-25.395 26.214z" />
<glyph unicode="&#xe90c;" glyph-name="Calendar-3" horiz-adv-x="819" d="M708.608 876.442h-78.643v37.683c0 13.926-11.469 25.395-25.395 25.395h-68.813c-13.926 0-25.395-11.469-25.395-25.395v-37.683h-201.523v37.683c0 13.926-11.469 25.395-25.395 25.395h-68.813c-13.926 0-25.395-11.469-25.395-25.395v-37.683h-78.643c-49.152 0-89.293-40.141-89.293-89.293v-535.757c0-49.152 40.141-89.293 89.293-89.293h598.016c49.152 0 89.293 40.141 89.293 89.293v535.757c0 49.152-40.141 89.293-89.293 89.293zM708.608 221.082h-598.016c-16.384 0-29.491 13.107-29.491 29.491v461.21h657.818v-460.39c-0.819-17.203-13.926-30.31-30.31-30.31zM263.782 649.523h-104.858c-9.011 0-17.203-7.373-17.203-17.203v-49.152c0-9.011 7.373-17.203 17.203-17.203h104.858c9.011 0 17.203 7.373 17.203 17.203v49.152c0 9.83-7.373 17.203-17.203 17.203zM462.848 649.523h-104.858c-9.011 0-17.203-7.373-17.203-17.203v-49.152c0-9.011 7.373-17.203 17.203-17.203h104.858c9.011 0 17.203 7.373 17.203 17.203v49.152c0 9.83-7.373 17.203-17.203 17.203zM661.914 649.523h-104.858c-9.011 0-17.203-7.373-17.203-17.203v-49.152c0-9.011 7.373-17.203 17.203-17.203h104.858c9.011 0 17.203 7.373 17.203 17.203v49.152c0 9.83-7.373 17.203-17.203 17.203zM263.782 506.982h-104.858c-9.011 0-17.203-7.373-17.203-17.203v-49.152c0-9.011 7.373-17.203 17.203-17.203h104.858c9.011 0 17.203 7.373 17.203 17.203v49.152c0 9.011-7.373 17.203-17.203 17.203zM462.848 506.982h-104.858c-9.011 0-17.203-7.373-17.203-17.203v-49.152c0-9.011 7.373-17.203 17.203-17.203h104.858c9.011 0 17.203 7.373 17.203 17.203v49.152c0 9.011-7.373 17.203-17.203 17.203zM661.914 506.982h-104.858c-9.011 0-17.203-7.373-17.203-17.203v-49.152c0-9.011 7.373-17.203 17.203-17.203h104.858c9.011 0 17.203 7.373 17.203 17.203v49.152c0 9.011-7.373 17.203-17.203 17.203zM263.782 363.622h-104.858c-9.011 0-17.203-7.373-17.203-17.203v-49.152c0-9.011 7.373-17.203 17.203-17.203h104.858c9.011 0 17.203 7.373 17.203 17.203v49.152c0 9.83-7.373 17.203-17.203 17.203zM462.848 363.622h-104.858c-9.011 0-17.203-7.373-17.203-17.203v-49.152c0-9.011 7.373-17.203 17.203-17.203h104.858c9.011 0 17.203 7.373 17.203 17.203v49.152c0 9.83-7.373 17.203-17.203 17.203zM661.914 363.622h-104.858c-9.011 0-17.203-7.373-17.203-17.203v-49.152c0-9.011 7.373-17.203 17.203-17.203h104.858c9.011 0 17.203 7.373 17.203 17.203v49.152c0 9.83-7.373 17.203-17.203 17.203z" />
<glyph unicode="&#xe90d;" glyph-name="Person" horiz-adv-x="819" d="M575.898 569.242c-43.418-40.96-102.4-65.536-166.298-65.536s-122.88 24.576-166.298 65.536c-80.282-64.717-132.71-165.478-132.71-243.302 0-123.699 45.056-164.659 299.008-164.659s299.008 40.96 299.008 164.659c0 77.824-52.429 178.586-132.71 243.302zM600.474 748.646c0-105.417-85.457-190.874-190.874-190.874s-190.874 85.457-190.874 190.874c0 105.417 85.457 190.874 190.874 190.874s190.874-85.457 190.874-190.874z" />
<glyph unicode="&#xe90e;" glyph-name="User" horiz-adv-x="819" d="M659.456 361.984c0 114.688-39.322 214.63-118.784 265.421-4.096 2.458-9.011 1.638-12.288-0.819-33.587-24.576-74.547-39.322-119.603-39.322s-86.016 14.746-119.603 39.322c-3.277 2.458-8.192 3.277-12.288 0.819-77.824-50.79-117.146-150.733-117.146-265.421 0-21.299 35.226-36.864 87.654-46.694 4.915-86.016 75.366-154.010 162.202-154.010s158.106 67.994 162.202 154.010c52.429 9.83 87.654 25.395 87.654 46.694zM409.6 208.794c-63.898 0-115.507 51.61-115.507 115.507s51.61 114.688 115.507 114.688 115.507-51.61 115.507-115.507-51.61-114.688-115.507-114.688zM558.694 790.426c0-82.343-66.752-149.094-149.094-149.094s-149.094 66.752-149.094 149.094c0 82.343 66.752 149.094 149.094 149.094s149.094-66.752 149.094-149.094zM459.571 347.238h-99.942c-13.107 0-23.757-10.65-23.757-23.757s10.65-23.757 23.757-23.757h99.942c13.107 0 23.757 10.65 23.757 23.757s-10.65 23.757-23.757 23.757z" />
<glyph unicode="&#xe90f;" glyph-name="Group" horiz-adv-x="819" d="M294.093 540.57c-10.65 16.384-24.576 30.31-40.96 40.96-2.458 1.638-4.915 1.638-7.373 0-20.48-14.746-45.875-23.757-72.909-23.757s-52.429 9.011-72.909 23.757c-2.458 1.638-4.915 1.638-7.373 0-48.333-31.13-72.090-91.75-72.090-162.202 0-29.491 116.326-40.96 204.8-34.406 4.096 66.355 28.672 121.242 68.813 155.648zM263.782 680.653c0-50.22-40.711-90.931-90.931-90.931s-90.931 40.711-90.931 90.931c0 50.22 40.711 90.931 90.931 90.931s90.931-40.711 90.931-90.931zM726.63 581.53c-2.458 1.638-4.915 1.638-7.373 0-20.48-14.746-45.875-23.757-72.909-23.757s-52.429 9.011-72.909 23.757c-2.458 1.638-4.915 1.638-7.373 0-16.384-10.65-29.491-24.576-40.96-40.96 40.141-34.406 64.717-89.293 68.813-155.648 89.293-6.554 204.8 4.096 204.8 34.406 0 70.451-23.757 131.072-72.090 162.202zM737.28 680.653c0-50.22-40.711-90.931-90.931-90.931s-90.931 40.711-90.931 90.931c0 50.22 40.711 90.931 90.931 90.931s90.931-40.711 90.931-90.931zM489.882 527.462c-2.458 1.638-4.915 1.638-7.373 0-20.48-14.746-45.875-23.757-72.909-23.757s-52.429 9.011-72.909 23.757c-2.458 1.638-4.915 1.638-7.373 0-48.333-31.13-72.090-91.75-72.090-162.202 0-48.333 305.562-48.333 305.562 0-0.819 69.632-24.576 131.072-72.909 162.202zM500.531 626.586c0-50.22-40.711-90.931-90.931-90.931s-90.931 40.711-90.931 90.931c0 50.22 40.711 90.931 90.931 90.931s90.931-40.711 90.931-90.931z" />
<glyph unicode="&#xe910;" glyph-name="Adjust" horiz-adv-x="819" d="M172.032 585.626v319.488c0 18.842-15.565 34.406-34.406 34.406s-34.406-15.565-34.406-34.406v-319.488c-41.779-4.915-73.728-40.141-73.728-83.558v-141.722c0-42.598 32.768-77.824 73.728-82.739v-81.101c0-18.842 15.565-34.406 34.406-34.406s34.406 15.565 34.406 34.406v81.101c41.779 4.915 73.728 40.141 73.728 82.739v141.722c0.819 42.598-31.949 77.824-73.728 83.558zM176.947 360.346c0-8.192-6.554-14.746-14.746-14.746h-49.152c-8.192 0-14.746 6.554-14.746 14.746v141.722c0 8.192 6.554 14.746 14.746 14.746h49.152c8.192 0 14.746-6.554 14.746-14.746v-141.722zM444.006 824.013v81.101c0 18.842-15.565 34.406-34.406 34.406s-34.406-15.565-34.406-34.406v-81.101c-41.779-4.915-73.728-40.141-73.728-83.558v-141.722c0-42.598 32.768-77.824 73.728-83.558v-319.488c0-18.842 15.565-34.406 34.406-34.406s34.406 15.565 34.406 34.406v319.488c41.779 4.915 73.728 40.141 73.728 83.558v141.722c0.819 42.598-31.949 77.824-73.728 83.558zM448.922 598.733c0-8.192-6.554-14.746-14.746-14.746h-49.152c-8.192 0-14.746 6.554-14.746 14.746v141.722c0 8.192 6.554 14.746 14.746 14.746h49.152c8.192 0 14.746-6.554 14.746-14.746v-141.722zM715.981 585.626v319.488c0 18.842-15.565 34.406-34.406 34.406s-34.406-15.565-34.406-34.406v-319.488c-41.779-4.915-73.728-40.141-73.728-83.558v-141.722c0-42.598 32.768-77.824 73.728-82.739v-81.101c0-18.842 15.565-34.406 34.406-34.406s34.406 15.565 34.406 34.406v81.101c41.779 4.915 73.728 40.141 73.728 82.739v141.722c0.819 42.598-31.949 77.824-73.728 83.558zM720.896 360.346c0-8.192-6.554-14.746-14.746-14.746h-49.152c-8.192 0-14.746 6.554-14.746 14.746v141.722c0 8.192 6.554 14.746 14.746 14.746h49.152c8.192 0 14.746-6.554 14.746-14.746v-141.722z" />
<glyph unicode="&#xe911;" glyph-name="Diagram" horiz-adv-x="819" d="M797.901 592.179c-21.299 195.789-186.778 347.341-387.482 347.341-51.61 0-100.762-10.65-146.637-28.672l171.213-318.669h362.906zM373.555 530.739l-183.501 339.968c-101.581-69.632-168.755-187.597-168.755-320.307 0-214.63 174.49-389.12 389.12-389.12 200.704 0 365.363 151.552 386.662 347.341h-386.662c-14.746 0-29.491 8.192-36.864 22.118z" />
<glyph unicode="&#xe912;" glyph-name="Search" horiz-adv-x="819" d="M786.432 298.906l-222.003 189.235c28.672 45.875 45.875 99.123 45.875 156.467 0 162.202-131.891 294.912-294.912 294.912s-294.912-131.891-294.912-294.912 131.891-294.912 294.912-294.912c57.344 0 111.411 17.203 156.467 45.875l189.235-222.003c13.926-16.384 37.683-17.203 52.429-2.458l74.547 74.547c14.746 15.565 13.926 39.322-1.638 53.248zM108.954 644.608c0 113.869 92.57 206.438 206.438 206.438s206.438-92.57 206.438-206.438c0-113.869-92.57-206.438-206.438-206.438s-206.438 92.57-206.438 206.438z" />
<glyph unicode="&#xe913;" glyph-name="Won" horiz-adv-x="819" d="M781.517 680.653h-54.886v54.886c0 9.83-8.192 17.203-17.203 17.203h-54.886v54.067c0 9.83-8.192 17.203-17.203 17.203h-599.654c-9.83 0-17.203-8.192-17.203-17.203v-370.278c0-9.83 8.192-17.203 17.203-17.203h54.886v-54.067c0-9.83 8.192-17.203 17.203-17.203h54.886v-54.886c0-9.83 8.192-17.203 17.203-17.203h598.835c9.83 0 17.203 8.192 17.203 17.203v370.278c0.819 9.83-7.373 17.203-16.384 17.203zM538.214 789.606c7.373-40.96 40.141-73.728 81.101-81.101v-172.851c-40.96-7.373-73.728-39.322-81.101-81.101h-95.027c49.971 36.864 81.92 98.304 81.92 167.117s-32.768 131.072-81.92 167.117h95.027zM337.51 455.373c-84.378 0-152.371 75.366-152.371 167.117s68.813 167.117 152.371 167.117c84.378 0 152.371-75.366 152.371-167.117s-67.994-167.117-152.371-167.117zM149.914 622.49c0-69.632 32.768-131.072 81.92-167.117h-95.027c-7.373 40.96-40.141 73.728-81.101 81.101v172.851c40.96 7.373 73.728 39.322 81.101 81.101h95.027c-49.152-36.864-81.92-98.304-81.92-167.936zM127.795 420.147h509.542c9.83 0 17.203 8.192 17.203 17.203v280.166h36.864v-335.053h-563.61v37.683zM763.494 311.194h-563.61v36.864h509.542c9.83 0 17.203 8.192 17.203 17.203v280.166h36.864v-334.234zM433.357 657.715h-13.926l6.554 25.395c2.458 9.011-3.277 18.022-12.288 19.661-9.011 2.458-18.022-3.277-19.661-12.288l-20.48-85.197-18.842 67.174c-1.638 7.373-8.192 12.288-16.384 12.288s-13.926-4.915-16.384-12.288l-18.842-66.355-20.48 85.197c-2.458 9.011-11.469 13.926-19.661 12.288-9.011-2.458-14.746-11.469-12.288-19.661l6.554-25.395h-13.926c-9.011 0-16.384-7.373-16.384-16.384s7.373-16.384 16.384-16.384h22.118l4.096-15.565h-14.746c-9.011 0-16.384-7.373-16.384-16.384s7.373-16.384 16.384-16.384h22.938l9.83-39.322c1.638-7.373 8.192-12.288 15.565-12.288 0 0 0 0 0 0 7.373 0 13.926 4.915 16.384 12.288l19.661 71.27 19.661-71.27c1.638-7.373 8.192-12.288 16.384-12.288 0 0 0 0 0 0 7.373 0 13.926 4.915 15.565 12.288l9.83 39.322h22.938c9.011 0 16.384 7.373 16.384 16.384s-7.373 16.384-16.384 16.384h-14.746l4.096 15.565h22.118c9.011 0 16.384 7.373 16.384 16.384-1.638 8.192-9.011 15.565-18.022 15.565z" />
<glyph unicode="&#xe914;" glyph-name="Won-2" horiz-adv-x="819" d="M771.686 271.872h-67.994v344.883h-107.315v-344.883h-373.555v344.883h-107.315v-344.883h-67.994c-14.746 0-27.034-12.288-27.034-27.034v-51.61c0-14.746 12.288-27.034 27.034-27.034h724.992c14.746 0 27.034 12.288 27.034 27.034v51.61c-0.819 14.746-13.107 27.034-27.853 27.034zM783.155 756.838l-361.267 174.49c-7.373 3.277-16.384 3.277-23.757 0l-362.086-174.49c-9.83-4.915-15.565-13.926-15.565-24.576v-42.598c0-15.565 12.288-27.853 27.853-27.853h723.354c15.565 0 27.853 12.288 27.853 27.853v41.779c-0.819 10.65-6.554 20.48-16.384 25.395zM277.709 488.141c0-10.65 8.192-18.842 18.842-18.842h26.214l4.915-19.661h-18.022c-10.65 0-18.842-8.192-18.842-18.842s8.192-18.842 18.842-18.842h27.853l11.469-47.514c2.458-8.192 9.83-14.746 18.022-14.746 0 0 0 0 0 0 8.192 0 16.384 5.734 18.022 13.926l24.576 86.835 23.757-86.016c2.458-8.192 9.83-13.926 18.022-13.926 0 0 0 0 0 0 9.011 0 16.384 5.734 18.022 14.746l11.469 47.514h27.853c10.65 0 18.842 8.192 18.842 18.842s-8.192 18.842-18.842 18.842h-17.203l4.915 19.661h26.214c10.65 0 18.842 8.192 18.842 18.842s-8.192 18.842-18.842 18.842h-17.203l7.373 30.31c2.458 10.65-4.096 20.48-13.926 22.938s-20.48-4.096-22.938-13.926l-25.395-103.219-22.938 81.92c-1.638 8.192-9.83 13.926-18.022 13.926s-16.384-5.734-18.022-13.926l-22.938-81.92-25.395 103.219c-2.458 9.83-13.107 16.384-22.938 13.926s-16.384-13.107-13.926-22.938l7.373-30.31h-17.203c-10.65 0-18.842-9.011-18.842-19.661z" />
<glyph unicode="&#xe915;" glyph-name="Done" horiz-adv-x="819" d="M639.795 939.52h-460.39c-61.44 0-111.411-49.971-111.411-111.411v-556.237c0-61.44 49.971-111.411 111.411-111.411h461.21c61.44 0 111.411 49.971 111.411 111.411v556.237c-0.819 61.44-50.79 111.411-112.23 111.411zM194.97 540.57c-4.915 4.915-4.915 13.926 0 18.842l10.65 10.65c4.915 4.915 13.926 4.915 18.842 0l18.022-18.022 45.056 45.056c4.915 4.915 13.926 4.915 18.842 0l10.65-10.65c4.915-4.915 4.915-13.926 0-18.842l-65.536-65.536c-2.458-2.458-5.734-4.096-9.83-4.096-3.277 0-6.554 1.638-9.83 4.096v0l-36.864 38.502zM318.669 380.826l-65.536-65.536c-2.458-2.458-5.734-4.096-9.83-4.096-3.277 0-6.554 1.638-9.83 4.096l-38.502 38.502c-4.915 4.915-4.915 13.926 0 18.842l10.65 10.65c4.915 4.915 13.926 4.915 18.842 0l18.022-18.022 45.056 45.056c2.458 2.458 5.734 4.096 9.83 4.096 3.277 0 7.373-1.638 9.83-4.096l10.65-10.65c2.458-2.458 4.096-5.734 4.096-9.83 0-2.458-0.819-6.554-3.277-9.011zM318.669 755.2l-65.536-65.536c-2.458-2.458-5.734-4.096-9.83-4.096-3.277 0-6.554 1.638-9.83 4.096v0l-38.502 38.502c-4.915 4.915-4.915 13.926 0 18.842l10.65 10.65c4.915 4.915 13.926 4.915 18.842 0l18.022-18.022 45.056 45.056c2.458 2.458 5.734 4.096 9.83 4.096 3.277 0 7.373-1.638 9.83-4.096l10.65-10.65c2.458-2.458 4.096-5.734 4.096-9.83 0-2.458-0.819-6.554-3.277-9.011zM541.491 302.182h-154.829c-11.469 0-21.299 9.83-21.299 21.299s9.83 21.299 21.299 21.299h154.829c11.469 0 21.299-9.83 21.299-21.299s-9.011-21.299-21.299-21.299zM607.027 381.645h-220.365c-11.469 0-21.299 9.83-21.299 21.299s9.83 21.299 21.299 21.299h220.365c11.469 0 21.299-9.83 21.299-21.299s-9.011-21.299-21.299-21.299zM365.363 510.259c0 11.469 9.83 21.299 21.299 21.299h154.829c11.469 0 21.299-9.83 21.299-21.299s-9.83-21.299-21.299-21.299h-154.829c-11.469 0-21.299 9.83-21.299 21.299zM607.027 569.242h-220.365c-11.469 0-21.299 9.83-21.299 21.299s9.83 21.299 21.299 21.299h220.365c11.469 0 21.299-9.83 21.299-21.299 0-12.288-9.011-21.299-21.299-21.299zM365.363 697.856c0 11.469 9.83 21.299 21.299 21.299h154.829c11.469 0 21.299-9.83 21.299-21.299s-9.83-21.299-21.299-21.299h-154.829c-11.469 0-21.299 9.83-21.299 21.299zM607.027 756.019h-220.365c-11.469 0-21.299 9.83-21.299 21.299s9.83 21.299 21.299 21.299h220.365c11.469 0 21.299-9.83 21.299-21.299s-9.011-21.299-21.299-21.299z" />
<glyph unicode="&#xe916;" glyph-name="Group-2" horiz-adv-x="819" d="M262.144 591.36c-15.565 26.214-23.757 55.706-23.757 86.835 0 29.491 7.373 56.525 20.48 81.101-18.022 12.288-40.141 19.661-63.898 19.661-61.44 0-112.23-49.971-112.23-112.23 0-35.226 16.384-66.355 40.96-86.835-60.621-34.406-103.219-107.315-103.219-161.382 0-71.27 25.395-95.027 167.117-96.666-15.565 26.214-18.022 57.344-18.022 83.558 0 63.898 37.683 136.806 92.57 185.958zM693.862 579.891c25.395 20.48 40.96 51.61 40.96 86.835 0 61.44-49.971 112.23-112.23 112.23-23.757 0-45.056-7.373-63.078-19.661 13.107-23.757 20.48-51.61 20.48-81.101 0-31.13-8.192-60.621-23.757-86.835 55.706-49.152 93.389-121.242 93.389-185.139 0-26.214-2.458-56.525-18.022-83.558 141.722 0.819 167.117 25.395 167.117 96.666 0 53.248-42.598 126.157-104.858 160.563zM487.424 582.349c27.853 22.938 45.056 56.525 45.056 95.027 0 67.994-54.886 122.88-122.88 122.88s-122.88-54.886-122.88-122.88c0-38.502 18.022-72.909 45.056-95.027-67.174-37.683-114.688-117.965-114.688-176.128 0-79.462 29.491-105.677 192.512-105.677s192.512 26.214 192.512 105.677c0 58.982-47.514 138.445-114.688 176.128z" />
<glyph unicode="&#xe917;" glyph-name="Law" horiz-adv-x="819" d="M167.68 910.9c-6.565-0.704-12.067-7.072-12.032-13.824v-608.767c0-7.206 6.523-13.823 13.568-13.824h63.744v-67.072c-0.629-13.757 16.852-15.646 23.552-8.704l40.192 46.336 38.912-49.92c8.776-10.913 24.674-3.13 24.064 8.704v70.656h290.304c7.045 0 13.567 6.618 13.568 13.824v608.767c0 7.206-6.523 13.823-13.568 13.824h-482.304zM182.528 883.252h454.144v-581.119h-276.992v30.208c13.665 15.517 22.272 35.863 22.272 58.368 0 48.050-38.269 87.296-85.504 87.296-46.975 0-85.76-39.173-85.76-87.296 0-22.644 8.457-43.344 22.272-58.88v-29.696h-50.432v581.119zM332.8 311.605v-68.608l-24.832 32.256c-4.947 6.294-15.625 6.411-20.736 0.254l-27.392-31.488v67.328c25.329-7.534 53.073-8.826 72.96 0.254zM239.363 758.119c-17.518-0.16-16.872-27.767 0-27.521h340.704c19.059-0.025 15.313 27.758 0 27.521zM239.363 657.014c-17.097-0.303-16.171-27.767 0-27.522h340.704c18.663-0.434 16.503 27.353 0 27.522zM239.363 569.888c-17.658 0-17.292-28.197 0-27.521h340.704c18.359-0.418 16.452 27.766 0 27.521zM388.103 475.286c-19.258 0.229-16.602-27.758 0-27.521h170.352c19.059 0 15.809 27.353 0 27.521zM239.363 860.199c-17.077-0.179-16.602-27.758 0-27.521h340.704c18.465-0.227 16.503 27.353 0 27.521z" />
<glyph unicode="&#xe918;" glyph-name="Law-2" horiz-adv-x="819" d="M507.576 681.079l-160.473 138.273-93.381-115.409 160.449-138.265zM233.578 696.259l117.277 144.908c4.055 4.997 2.662 13.083-3.088 18.039-5.759 4.948-13.689 4.932-17.744-0.090l-117.293-144.884c-4.055-5.005-2.662-13.091 3.097-18.055 5.751-4.956 13.697-4.915 17.752 0.082zM527.598 688.853l-117.285-144.9c-4.047-4.989-2.654-13.058 3.072-18.022 5.751-4.973 13.705-4.932 17.752 0.066l117.293 144.908c4.039 5.005 2.671 13.083-3.097 18.039-5.759 4.956-13.705 4.915-17.736-0.090zM314.614 634.876l-72.778-89.899 22.831-19.694 72.778 89.924zM255.255 513.675l4.456 5.489-23.044 19.841-4.465-5.489zM206.75 515.355l-195.617-218.644c-7.799-9.634-6.529-23.945 2.785-31.973l25.002-21.561c9.339-8.028 23.216-6.758 31.007 2.892l173.621 237.576c7.815 9.626 6.562 23.945-2.785 31.99l-3.006 2.589c-9.339 8.061-23.224 6.75-31.007-2.867zM486.76 316.674c-93.749 22.528-188.080 44.13-282.386 65.774l12.911 17.957c78.856-18.096 158.212-36.454 237.65-54.895 6.496-1.507 18.637-5.784 22.462-4.956 4.35 0.901 15.155 11.829 20.939 16.802 98.681 85.098 200.335 170.5 299.262 255.074 2.531 1.458-0.459 6.595-0.565 9.806 4.44-2.318 9.83-3.105 13.836-6.111 1.72-5.571 0.811-9.355 2.302-14.754l-326.41-284.697zM210.78 545.354c0.082 0.049 0.197 0.066 0.279 0.082l2.048 2.58 4.399 5.505 16.024 20.087 0.205-0.18 52.822 66.306-33.219 28.18c-5.054-3.793-10.093-7.651-15.155-11.444-8.52-6.373-16.916-12.96-25.403-19.358-47.227-35.684-93.848-71.795-140.378-107.938-12.018-29.843-2.966-82.313 17.85-110.232l13.804 15.688c-16.040 24.601-22.888 69.239-9.322 90.3 25.182-5.030 50.373-10.076 75.53-15.163l17.99 20.431c5.947 7.242 13.713 12.485 22.528 15.155zM295.698 520.884l-21.242-26.649c-0.066-1.753-0.213-3.547-0.467-5.259 57.352-11.452 114.762-22.847 172.351-33.948 112.378 91.046 225.722 181.428 337.756 272.695-38.093 11.461-75.629 23.781-113.754 35.226-39.338 12.132-79.167 23.192-118.079 36.643-15.008 5.186-32.809 11.133-48.718 11.092-19.997-0.025-40.69-2.949-59.974-8.561-9.077-2.613-17.883-6.488-26.427-11.158l94.88-80.486c3.637 3.113 7.856 5.538 12.509 6.963 12.255 3.76 25.69 0.778 36.020-7.971 16.515-14.008 19.513-38.527 6.668-54.632l-116.171-145.834c-4.456-5.62-10.412-9.675-17.236-11.78-12.231-3.752-25.69-0.778-36.012 7.987-14.68 12.46-18.637 33.186-10.363 48.955l-38.928 33.022-52.814-66.306zM100.172 498.749c13.5-5.194 28.32-6.341 42.5-9.601 2.613-0.59 5.251-1.18 7.881-1.761l4.121 4.669c-14.623 3.138-29.18 6.283-43.68 9.454-3.67 0.811-8.11 4.178-10.822-2.761zM446.12 430.502c-59.163 13.148-119.546 25.657-179.814 38.167-0.655-1.024-1.319-1.999-2.040-2.957l-2.032-2.793c58.016-12.28 116.064-24.109 173.105-36.078 3.539-0.762 8.364-3.654 10.846 2.753 0.213 0.344 0.41 0.672-0.066 0.909zM449.946 400.511c0.238 0.336 0.426 0.68-0.049 0.909-66.273 13.844-133.685 28.688-200.761 43.27l-4.039-5.62c64.954-13.959 130.343-27.648 194.044-41.337 3.498-0.754 8.364-3.604 10.805 2.777zM105.996 469.897c8.045-1.86 16.171-3.67 24.273-5.521l4.317 4.882c-6.070 1.253-12.182 2.589-18.235 3.826-3.67 0.762-8.102 2.589-10.355-3.187zM228.442 415.896c72.786-16.572 146.506-32.883 218.309-48.767 3.539-0.778 8.29-3.76 10.846 2.646 0.221 0.328 0.434 0.639-0.041 0.893-74.203 15.95-149.881 33.915-224.977 51.020l-4.137-5.792z" />
<glyph unicode="&#xe919;" glyph-name="Law-3" horiz-adv-x="819" d="M393.809 803.719l86.259-86.259-49.143-49.143c12.694-9.047 27.334-19.477 43.134-30.962l-59.138-59.138-30.769 43.328-50.41-50.41-86.259 86.259 146.325 146.325zM497.339 218.312h-373.065c-44.798 0-44.798 68.020 0 68.020 189.556 0 183.509 0 373.065 0 44.402 0 44.402-68.020 0-68.020zM457.349 300.536h-293.357v60.028h293.357v-60.028zM430.354 556.902c14.068-19.342 29.269-39.883 45.243-60.396l79.669 79.669c-20.406 16.071-40.754 31.475-59.999 45.64l-64.914-64.914zM491.795 475.955c15.8-19.709 32.21-39.119 48.611-57.096l92.074 92.074c-17.91 16.507-37.184 32.975-56.796 48.91l-83.888-83.888zM558.247 399.953c60.028-61.537 119.195-99.292 156.417-62.069 35.781 35.781-2.138 94.773-63.376 155.111l-93.041-93.041zM218.689 664.708l122.368-122.368-50.014-50.014-122.368 122.378 50.014 50.004zM386.495 832.523l122.368-122.407 50.014 50.014-122.407 122.368-49.975-49.975z" />
<glyph unicode="&#xe91a;" glyph-name="School" horiz-adv-x="819" d="M425.165 633.958l-11.469 4.096c0 0.819 0 2.458-0.819 3.277 0 0-0.819 0.819-1.638 0.819v22.118c0 0.819-0.819 1.638-1.638 1.638s-1.638-0.819-1.638-1.638v-22.118c-0.819 0-0.819-0.819-1.638-0.819-1.638-1.638-1.638-4.096 0-5.734s4.096-1.638 5.734 0c0 0 0 0 0 0l11.469-4.096c0.819 0 1.638 0 1.638 0.819s0.819 1.638 0 1.638zM705.331 365.261v235.11h-225.28v48.333h29.491l-99.942 104.858-99.942-105.677h29.491v-48.333h-225.28v-234.291h-11.469v-18.842h614.4v18.842h-11.469zM640.614 559.411h30.31v-60.621h-30.31v60.621zM640.614 452.915h30.31v-60.621h-30.31v60.621zM591.462 559.411h30.31v-60.621h-30.31v60.621zM591.462 452.915h30.31v-60.621h-30.31v60.621zM542.31 559.411h30.31v-60.621h-30.31v60.621zM542.31 452.915h30.31v-60.621h-30.31v60.621zM493.158 559.411h30.31v-60.621h-30.31v60.621zM493.158 452.915h30.31v-60.621h-30.31v60.621zM444.006 559.411h30.31v-60.621h-30.31v60.621zM409.6 670.822c18.842 0 33.587-14.746 33.587-33.587s-14.746-33.587-33.587-33.587-33.587 14.746-33.587 33.587c0 18.842 14.746 33.587 33.587 33.587zM424.346 559.411v-60.621h-30.31v60.621h30.31zM345.702 559.411h30.31v-60.621h-30.31v60.621zM296.55 559.411h30.31v-60.621h-30.31v60.621zM296.55 452.915h30.31v-60.621h-30.31v60.621zM247.398 559.411h30.31v-60.621h-30.31v60.621zM247.398 452.915h30.31v-60.621h-30.31v60.621zM198.246 559.411h30.31v-60.621h-30.31v60.621zM198.246 452.915h30.31v-60.621h-30.31v60.621zM149.094 559.411h30.31v-60.621h-30.31v60.621zM149.094 452.915h30.31v-60.621h-30.31v60.621zM376.013 365.261v104.858h67.174v-104.858h-67.174z" />
<glyph unicode="&#xe91b;" glyph-name="Train" horiz-adv-x="819" d="M625.869 226.816l-7.373 23.757c-1.638 4.096-4.915 7.373-9.83 7.373h-28.672l-17.203 59.802h21.299c6.554 0 11.469 6.554 9.83 13.107l-7.373 22.938c-1.638 4.096-4.915 7.373-9.83 7.373h-27.034l-17.203 60.621h20.48c6.554 0 11.469 6.554 9.83 13.107l-7.373 23.757c-1.638 4.096-4.915 7.373-9.83 7.373h-27.034l-9.83 35.226c-1.638 4.096-4.915 7.373-9.83 7.373h-29.491c-6.554 0-11.469-5.734-9.83-12.288l5.734-31.13h-111.411l5.734 31.13c0.819 6.554-4.096 12.288-9.83 12.288h-29.491c-4.915 0-8.192-3.277-9.83-7.373l-10.65-36.045h-27.034c-4.915 0-8.192-3.277-9.83-7.373l-7.373-23.757c-1.638-6.554 3.277-13.107 9.83-13.107h21.299l-17.203-59.802h-27.034c-4.915 0-8.192-3.277-9.83-7.373l-7.373-23.757c-1.638-6.554 3.277-13.107 9.83-13.107h21.299l-17.203-59.802h-28.672c-4.915 0-8.192-3.277-9.83-7.373l-7.373-23.757c-1.638-6.554 3.277-13.107 9.83-13.107h22.938l-11.469-39.322c-1.638-6.554 3.277-13.107 9.83-13.107h67.994c4.915 0 9.011 3.277 9.83 8.192l7.373 43.418h199.066l7.373-43.418c0.819-4.915 4.915-8.192 9.83-8.192h67.174c6.554 0 11.469 6.554 9.83 13.107l-11.469 39.322h22.938c8.192 0.819 13.107 7.373 11.469 13.926zM346.522 421.786h126.157l10.65-59.802h-147.456l10.65 59.802zM317.85 257.126l10.65 59.802h163.021l10.65-59.802h-184.32zM297.37 541.389h225.28c36.864 0 66.355 29.491 66.355 66.355v237.568c0 51.61-41.779 94.208-94.208 94.208h-169.574c-51.61 0-94.208-41.779-94.208-94.208v-237.568c0-36.045 29.491-66.355 66.355-66.355zM326.042 636.416c-17.203 0-30.31 13.926-30.31 30.31 0 17.203 13.926 30.31 30.31 30.31s30.31-13.926 30.31-30.31c0.819-16.384-13.107-30.31-30.31-30.31zM493.158 636.416c-17.203 0-30.31 13.926-30.31 30.31 0 17.203 13.926 30.31 30.31 30.31 17.203 0 30.31-13.926 30.31-30.31s-13.926-30.31-30.31-30.31zM287.539 845.312c0 20.48 16.384 37.683 37.683 37.683h169.574c20.48 0 37.683-16.384 37.683-37.683v-88.474h-244.941v88.474z" />
<glyph unicode="&#xe91c;" glyph-name="Station" horiz-adv-x="819" d="M34.133 669.867h750.933c6.178 0.103 11.547 3.473 14.463 8.453l0.044 0.081c1.598 2.55 2.547 5.649 2.547 8.969 0 2.764-0.657 5.374-1.823 7.684l0.045-0.098c-1.28 2.133-127.232 247.979-390.741 247.979s-389.461-245.845-390.741-248.405c-1.122-2.212-1.779-4.822-1.779-7.586 0-3.32 0.948-6.419 2.588-9.040l-0.042 0.072c3.054-4.892 8.405-8.1 14.506-8.107h0.001zM409.6 908.8c193.707 0 307.2-145.493 345.6-204.8h-691.2c38.4 59.307 151.893 204.8 345.6 204.8zM409.6 867.157c-40.059 0-72.533-32.474-72.533-72.533s32.474-72.533 72.533-72.533c40.059 0 72.533 32.474 72.533 72.533v0c-0.049 40.040-32.494 72.485-72.529 72.533h-0.005zM409.6 756.224c-21.208 0-38.4 17.192-38.4 38.4s17.192 38.4 38.4 38.4c21.208 0 38.4-17.192 38.4-38.4v0c-0.048-21.188-17.212-38.352-38.395-38.4h-0.005zM802.133 567.467v68.267c0 9.426-7.641 17.067-17.067 17.067v0h-512.768c-9.426 0-17.067-7.641-17.067-17.067s7.641-17.067 17.067-17.067v0h495.701v-34.133h-716.8v34.133h60.416c9.426 0 17.067 7.641 17.067 17.067s-7.641 17.067-17.067 17.067v0h-77.483c-9.426 0-17.067-7.641-17.067-17.067v0-68.267c0-9.426 7.641-17.067 17.067-17.067v0h34.133v-290.133h-34.133c-9.426 0-17.067-7.641-17.067-17.067v0-68.267c0-9.426 7.641-17.067 17.067-17.067v0h750.933c9.426 0 17.067 7.641 17.067 17.067v0 68.267c0 9.426-7.641 17.067-17.067 17.067v0h-34.133v160c0 9.426-7.641 17.067-17.067 17.067s-17.067-7.641-17.067-17.067v0-160h-34.133v290.133h102.4c9.426 0 17.067 7.641 17.067 17.067v0zM102.4 550.4h34.133v-290.133h-34.133zM733.867 226.133h34.133v-34.133h-716.8v34.133h682.667zM477.867 260.267h-136.533v153.6c0 37.703 30.564 68.267 68.267 68.267s68.267-30.564 68.267-68.267v0zM648.533 260.267h-136.533v153.6c0 56.554-45.846 102.4-102.4 102.4s-102.4-45.846-102.4-102.4v0-153.6h-136.533v290.133h477.867zM178.432 652.8c-9.426 0-17.067-7.641-17.067-17.067s7.641-17.067 17.067-17.067v0h29.867c9.426 0 17.067 7.641 17.067 17.067s-7.641 17.067-17.067 17.067v0zM716.8 516.267v-42.667c0-9.426 7.641-17.067 17.067-17.067s17.067 7.641 17.067 17.067v0 42.667c0 9.426-7.641 17.067-17.067 17.067s-17.067-7.641-17.067-17.067v0z" />
<glyph unicode="&#xe91d;" glyph-name="Radioactive" horiz-adv-x="819" d="M636.16 883.84c-64.64 44.16-142.72 69.76-226.56 69.76s-161.92-25.6-226.56-69.76c-106.88-72.96-176.64-195.2-176.64-333.44s69.76-260.48 176.64-333.44c64.64-44.16 142.72-69.76 226.56-69.76s161.92 25.6 226.56 69.76c106.88 72.96 176.64 195.2 176.64 333.44s-69.76 260.48-176.64 333.44zM356.48 629.76c15.36 10.24 33.28 16.64 53.12 16.64s37.76-5.76 53.12-16.64c24.96-17.28 41.6-45.44 41.6-78.080v0c0-32.64-16.64-60.8-41.6-78.080-15.36-10.24-33.28-16.64-53.12-16.64s-37.76 5.76-53.12 16.64c-24.96 17.28-41.6 45.44-41.6 78.080v0c0.64 32.64 16.64 61.44 41.6 78.080zM72.32 551.68c0 115.84 58.24 218.24 147.2 279.040l106.88-156.8c-36.48-24.96-61.44-65.92-64.64-112.64-3.84-3.84-6.4-5.76-10.24-9.6h-179.2zM409.6 214.4c-70.4 0-135.68 21.76-189.44 58.24l106.24 156.8c23.68-16 52.48-25.6 83.2-25.6s59.52 9.6 83.2 25.6l106.88-156.8c-54.4-36.48-119.68-58.24-190.080-58.24zM557.44 551.68c0 0 0 0 0 0 0 50.56-25.6 95.36-64.64 122.24v0l106.88 156.8c88.96-60.8 147.2-163.2 147.2-279.040h-189.44z" />
<glyph unicode="&#xe91e;" glyph-name="Bomb" horiz-adv-x="819" d="M654.541 796.16c4.915 1.638 9.83-2.458 7.373-7.373l-29.491-72.090 6.554-6.554 105.677-8.192c9.83-0.819 13.926-12.288 7.373-18.842l-97.485-97.485c-4.096-4.096-9.83-4.915-14.746-3.277l-27.853 11.469c0 0 0.819-49.971-27.853-78.643s-217.907-217.907-217.907-217.907-113.869-116.326-216.269-13.926 13.926 217.088 13.926 217.088 188.416 188.416 217.907 217.907 78.643 27.853 78.643 27.853l-11.469 27.853c-1.638 4.915-0.819 10.65 3.277 14.746l96.666 96.666c6.554 6.554 18.022 2.458 18.842-7.373l8.192-105.677 6.554-6.554 72.090 30.31z" />
<glyph unicode="&#xe91f;" glyph-name="Nuclear" horiz-adv-x="819" d="M444.826 558.464c-15.651 49.902-27.052 108.138-31.961 168.212l-0.192 2.924h-236.557c-5.1-63.001-16.506-121.241-33.706-176.939l1.539 5.79c40.101 34.761 92.796 55.943 150.438 55.943s110.337-21.182 150.726-56.187l-0.288 0.244zM371.2 704.128c7.014-0.073 12.671-5.775 12.671-12.799 0-7.069-5.731-12.8-12.8-12.8-7.024 0-12.727 5.658-12.799 12.664v0.007c0 0.008 0 0.017 0 0.026 0 7.126 5.777 12.902 12.902 12.902 0.009 0 0.018 0 0.027 0h-0.001zM320 704.128c7.014-0.073 12.671-5.775 12.671-12.799 0-7.069-5.731-12.8-12.8-12.8-7.024 0-12.727 5.658-12.799 12.664v0.007c0 0.008 0 0.017 0 0.026 0 7.126 5.777 12.902 12.902 12.902 0.009 0 0.018 0 0.027 0h-0.001zM217.6 678.4c-0.019 0-0.041 0-0.064 0-7.105 0-12.864 5.759-12.864 12.864s5.759 12.864 12.864 12.864c7.105 0 12.864-5.759 12.864-12.864 0-0.022 0-0.045 0-0.067v0.003c-0.057-7.046-5.754-12.743-12.795-12.8h-0.005zM268.8 678.4c-0.019 0-0.041 0-0.064 0-7.105 0-12.864 5.759-12.864 12.864s5.759 12.864 12.864 12.864c7.105 0 12.864-5.759 12.864-12.864 0-0.022 0-0.045 0-0.067v0.003c-0.057-7.046-5.754-12.743-12.795-12.8h-0.005zM722.611 405.555c-5.747 15.629-11.674 31.795-17.997 51.302-11.227 34.768-19.377 75.293-22.855 117.144l-0.134 1.999h-183.885c-0.615-25.182-3.285-49.32-7.853-72.78l0.442 2.725 0.781-2.035c3.674-9.434 7.36-18.65 11.021-27.763 2.931-7.283 5.824-14.528 8.691-21.76l0.346-0.909q4.262-10.816 8.371-21.875l0.256-0.678 0.090-0.269c3.251-8.781 6.4-17.792 9.472-27.149v-0.141c2.483-7.603 4.877-15.539 7.194-23.718 0.538-1.882 1.075-3.84 1.587-5.645 1.69-6.157 3.328-12.57 4.915-19.2 0.525-2.214 1.101-4.442 1.626-6.669 1.894-8.23 3.725-16.742 5.44-25.766 2.15-11.264 3.994-22.592 5.619-33.971 0.538-3.84 0.909-7.59 1.382-11.379 0.973-7.616 1.92-15.232 2.65-22.874 0.435-4.557 0.704-9.126 1.062-13.696 0.525-6.925 1.037-13.837 1.37-20.762 0.243-4.851 0.346-9.69 0.486-14.541 0.128-4.39 0.384-8.781 0.435-13.171h204.595c-2.105 36.969-6.485 71.278-13.075 104.794l0.787-4.8c-8.35 43.378-19.698 81.448-34.331 117.845l1.512-4.258zM537.6 524.8c-0.019 0-0.041 0-0.064 0-7.105 0-12.864 5.759-12.864 12.864s5.759 12.864 12.864 12.864c7.105 0 12.864-5.759 12.864-12.864v0c-0.021-7.073-5.732-12.806-12.794-12.864h-0.006zM588.8 524.8c-0.019 0-0.041 0-0.064 0-7.105 0-12.864 5.759-12.864 12.864s5.759 12.864 12.864 12.864c7.105 0 12.864-5.759 12.864-12.864v0c-0.021-7.073-5.732-12.806-12.794-12.864h-0.006zM640 524.8c-0.019 0-0.041 0-0.064 0-7.105 0-12.864 5.759-12.864 12.864s5.759 12.864 12.864 12.864c7.105 0 12.864-5.759 12.864-12.864v0c-0.021-7.073-5.732-12.806-12.794-12.864h-0.006zM294.4 294.4c-0.004 0-0.009 0-0.014 0-12.036 0-23.422 2.782-33.551 7.739l0.451-0.199-25.472-50.944c17.572-4.932 37.751-7.767 58.592-7.767s41.020 2.835 60.172 8.14l-1.58-0.373-25.472 50.931c-9.695-4.704-21.081-7.475-33.109-7.526h-0.017zM536.666 218.688c-0.32 6.618-0.819 13.21-1.28 19.814-0.346 4.454-0.614 8.96-1.037 13.35-0.691 7.309-1.613 14.592-2.56 21.875-0.461 3.725-0.832 7.45-1.357 11.162-1.562 10.957-3.341 21.875-5.414 32.704-1.446 7.68-2.982 14.912-4.57 21.952-12.66-61.959-48.672-113.819-98.236-147.019l-0.836-0.527h115.994c0 4.045-0.102 8.090-0.218 12.122-0.141 4.864-0.243 9.715-0.486 14.566zM499.2 384c-0.033 13.868-1.429 27.389-4.062 40.463l0.222-1.32c-2.675 7.219-5.402 14.298-8.154 21.325l-0.179 0.448c-2.906 7.373-5.837 14.682-8.781 22.016-3.226 8.038-6.464 16.141-9.702 24.397-36.545 58.862-100.833 97.473-174.138 97.473-73.348 0-137.667-38.655-173.698-96.705l-0.503-0.87c-3.238-8.256-6.477-16.346-9.702-24.32-5.798-14.438-11.52-28.736-17.050-43.635-2.456-11.878-3.861-25.529-3.861-39.509 0-87.672 55.293-162.429 132.908-191.302l1.411-0.46h140.979c78.91 29.617 134.093 104.337 134.31 191.973v0.027zM320 456.294l47.36 71.68c2.326 3.472 6.234 5.727 10.668 5.727 3.235 0 6.19-1.2 8.444-3.18l-0.014 0.012c40.677-35.643 69.556-83.856 80.576-138.535l0.269-1.599c0.151-0.738 0.238-1.586 0.238-2.455 0-6.802-5.305-12.364-12.003-12.776l-0.036-0.002-86.528-5.12c-0.001 0-0.002 0-0.003 0-7.069 0-12.8 5.731-12.8 12.8 0 0.541 0.034 1.075 0.099 1.599l-0.006-0.063c0.233 1.835 0.366 3.959 0.366 6.113 0 21.009-12.654 39.063-30.756 46.955l-0.33 0.128c-4.531 2.037-7.629 6.511-7.629 11.709 0 2.606 0.779 5.030 2.116 7.052l-0.030-0.048zM332.8 384c0-21.208-17.192-38.4-38.4-38.4s-38.4 17.192-38.4 38.4c0 21.208 17.192 38.4 38.4 38.4v0c21.208 0 38.4-17.192 38.4-38.4v0zM133.299 375.117c-6.734 0.413-12.039 5.976-12.039 12.777 0 0.868 0.086 1.717 0.251 2.537l-0.014-0.082c11.301 56.319 40.218 104.561 80.658 139.964l0.289 0.248c2.239 1.967 5.194 3.167 8.429 3.167 4.435 0 8.342-2.255 10.639-5.681l0.029-0.046 47.36-71.68c1.324-1.983 2.113-4.422 2.113-7.045 0-5.252-3.163-9.765-7.688-11.739l-0.083-0.032c-18.432-8.021-31.086-26.074-31.086-47.084 0-2.154 0.133-4.278 0.391-6.362l-0.025 0.249c0.059-0.461 0.092-0.995 0.092-1.536 0-7.069-5.731-12.8-12.8-12.8-0.001 0-0.002 0-0.003 0h-0.768zM383.040 238.349c-1.42-3.411-4.173-6.025-7.59-7.23l-0.090-0.028c-24.132-8.55-51.962-13.49-80.947-13.49s-56.816 4.941-82.697 14.025l1.749-0.535c-5.079 1.775-8.658 6.525-8.658 12.111 0 2.085 0.498 4.053 1.382 5.792l-0.034-0.073 38.4 76.8c2.141 4.251 6.47 7.117 11.469 7.117 2.918 0 5.609-0.977 7.762-2.621l-0.031 0.023c8.45-6.393 19.136-10.24 30.72-10.24s22.27 3.847 30.849 10.333l-0.129-0.093c2.122 1.622 4.812 2.598 7.731 2.598 4.999 0 9.328-2.865 11.436-7.043l0.034-0.073 38.4-76.8c0.8-1.624 1.268-3.534 1.268-5.554 0-1.813-0.377-3.538-1.057-5.101l0.032 0.083zM239.898 453.696l-31.386 47.552c-27.397-27.26-47.784-61.542-58.234-99.919l-0.365-1.572 56.832-3.405c1.016 12.069 4.618 23.107 10.249 32.824l-0.201-0.376c5.878 10.047 13.631 18.372 22.847 24.729l0.257 0.167zM371.994 428.8c5.477-9.33 9.084-20.379 10.018-32.181l0.017-0.267 56.858 3.405c-10.815 39.949-31.201 74.231-58.589 101.482l-0.009 0.009-31.373-47.526c9.43-6.571 17.166-14.896 22.88-24.559l0.199-0.363zM68.339 339.61c-1.626-7.206-3.136-14.528-4.57-22.016-7.497-37.503-12.048-80.848-12.566-125.162l-0.004-0.432h116.224c-50.414 33.742-86.432 85.626-98.829 146.118l-0.255 1.491zM307.2 384c0-7.069-5.731-12.8-12.8-12.8s-12.8 5.731-12.8 12.8c0 7.069 5.731 12.8 12.8 12.8s12.8-5.731 12.8-12.8zM179.2 780.8h230.4v-25.6h-230.4v25.6zM499.2 627.2h179.2v-25.6h-179.2v25.6z" />
<glyph unicode="&#xe920;" glyph-name="Missile" horiz-adv-x="819" d="M25.873 143.326c-4.915 0-13.005 0-18.534 6.519-5.291 6.144-5.291 15.94-4.369 23.074 27.921 219.921 125.884 379.426 291.055 474.044 60.962 34.884 77.38 65.98 64.99 123.017-2.082 9.421-7.543 41.54 8.124 58.743 27.921 30.618 57.446 59.324 88.678 89.737 11.401 11.093 23.040 22.391 34.85 34.065 4.847 4.813 12.049 6.281 18.193 3.755 6.315-2.458 10.547-8.363 10.82-15.087l8.67-186.061 131.823 69.837c6.656 3.584 14.882 2.287 20.139-3.072 2.492-2.526 4.096-5.7 4.676-9.045 1.331-3.857 1.263-8.021-0.785-11.913l-69.803-131.823 186.027-8.67c6.724-0.307 12.629-4.54 15.087-10.82 2.423-6.281 0.956-13.414-3.721-18.193l-33.417-34.167c-30.618-31.471-59.529-61.201-90.385-89.327-11.571-10.581-35.635-13.312-58.743-8.158-57.071 12.186-87.415-2.867-123.017-64.99-94.583-165.205-254.123-263.134-474.18-291.055-1.536-0.273-3.891-0.41-6.178-0.41zM487.424 901.53c-2.628-2.526-5.222-5.052-7.817-7.578-30.857-30.037-60.006-58.368-87.245-88.235-1.604-2.355-3.174-14.097-0.034-28.501 15.531-71.578-8.021-117.897-81.408-159.881-152.815-87.518-244.531-235.008-272.759-438.477 203.503 28.262 350.959 120.013 438.477 272.759 28.945 50.586 71.953 100.489 159.881 81.408 5.154-1.126 11.093-1.775 16.282-1.775 7.817 0 11.537 1.399 12.322 1.98 29.969 27.307 58.539 56.661 88.815 87.757l6.895 7.1-174.899 8.124c-5.837 0.273-11.127 3.516-14.029 8.567s-3.004 11.298-0.273 16.452l57.549 108.578-108.578-57.549c-5.154-2.697-11.366-2.662-16.452 0.273-5.052 2.901-8.294 8.192-8.567 14.029l-8.158 174.967z" />
<glyph unicode="&#xe921;" glyph-name="Harbour" horiz-adv-x="819" d="M492.356 710.013v-49.725l-120.029 137.675 120.029-87.949zM646.939 757.592h-87.933l42.353 40.010 45.58-40.010zM548.389 808.202l-52.855-50.627-69.321 50.627h122.175zM527.729 563.9h49.66v-113.623h-69.304v89.162l19.644 24.461zM625.263 450.277v113.623h49.644l19.661-24.461v-89.162h-69.304zM130.187 553.153v-44.777l-36.405-13.582v42.385l36.405 15.974zM213.877 516.796l-30.523 11.37-29.688-11.059v54.198l60.211 0.033v-54.542zM316.080 564.572l-58.327 25.625-23.429 23.249-101.089-0.049-23.396-23.151-58.327-25.625v-85.606l-41.796-15.598 38.633-123.077 137.216-21.807 132.563 21.479 38.912 123.372-40.96 15.286v85.901zM273.826 494.432l-36.454 13.615v45.089l36.454-16.024v-42.68zM612.467 850.473h-305.512v-173.965l18.579-0.229c8.405-0.098 15.057-7.012 15.057-15.385 0-8.487-6.914-15.335-15.385-15.368-7.52-0.033-14.565 4.948-15.254 12.78l-37.274-3.228c2.441-27.41 25.461-47.137 52.675-46.973 29.229 0.18 52.806 23.495 52.806 52.806 0 14.418-5.816 27.509-15.254 37.077-5.145 5.226-11.387 9.372-18.366 12.091v53.641l147.833-167.559-32.178-40.092v-105.808h-76.726v-152.044h-383.468v-47.907h819.2v199.967h-76.726v105.808l-32.195 40.108v161.399l-97.812 92.881z" />
<glyph unicode="&#xe922;" glyph-name="Mountain" horiz-adv-x="819" d="M333.778 832.684c7.209 19.502 22.409 47.653 32.187 49.796 0.64 0.16 1.822 0.4 4.089-1.858 18.489-18.498 55.529-66.276 69.44-84.427-13.68-12.373-21.911-29.538-23.413-32.853l-46.356-128.196c-8.693 16.169-16.213 30.267-21.849 41.022-15.218 29.031-30.8 42.524-47.804 41.289-0.951-0.071-1.849-0.276-2.764-0.444l36.471 115.671zM71.644 218.222l69.324 192.284c4.4 17.049 18.489 53.556 33.938 57.582 1.804 0.462 7.404 1.938 16.782-7.893 40.711-42.569 211.609-216.693 213.333-218.444 0 0-149.911 178.72-196.356 227.040l68.018 200.151c3.342 9.556 13.787 29.556 24.72 30.356 8.622 0.631 19.502-10.898 30.347-31.573 21.564-41.147 70.231-130.409 108.729-200.72-3.413-2.907-6.729-6.231-9.929-10.018l-40.32-47.733 54.222 35.982c9.902 11.716 20.649 17.76 31.947 17.982 0.222 0 0.444 0.009 0.667 0.009 20.018 0 36.587-17.618 36.649-17.618 0 0 0 0-0.009 0.009l146.791-163.591-132.782 175.191c-0.898 0.996-22.204 24.213-50.649 24.213-0.293 0-0.578-0.009-0.871-0.009-7.049-0.116-13.831-1.716-20.329-4.604-24 43.822-51.813 94.764-74.551 136.844l51.6 142.791c4.356 9.44 19.307 34.071 36.009 34.604 11.867 0.053 24.738-11.769 37.369-35.138 43.28-80.116 208.924-462.773 241.262-537.698h-675.911z" />
<glyph unicode="&#xe923;" glyph-name="Mountain-2" horiz-adv-x="819" d="M485.251 835.081l119.724-284.967-98.799-129.679-132.31 202.683 111.386 211.963zM314.914 808.325l79.697-106.586-32.142-61.164-42.906 32.426 185.466-284.105 120.097 157.617 128.764-280.799h-688.583l249.608 542.61z" />
<glyph unicode="&#xe924;" glyph-name="Forest" horiz-adv-x="819" d="M306.679 759.212c-7.088 14.226-12.466 26.975-12.466 26.975l11.376-1.747c0 0-11.717 19.028-17.065 28.838-5.819 10.674-18.486 43.697-18.486 43.697s-13.273-40.201-19.908-54.621c-6.859-14.906-26.070-45.006-26.070-45.006l11.85 2.62c0 0-1.81-1.277-3.791-5.68-0.653-1.452-12.799-17.479-12.799-17.479l11.85 2.622c0 0-0.474-6.118-9.006-25.344-11.196-25.233-30.336-53.567-30.336-53.567l21.803 3.496c0 0-1.895-13.506-10.427-29.893-15.136-29.070-29.654-35.831-29.654-35.831l19.797 2.622c0 0-9.076-33.681-20.479-56.808-17.775-36.049-33.18-55.276-33.18-55.276l41.424 8.221c0 0-6.744-20.946-14.406-39.354-11.731-28.184-32.706-43.808-32.706-43.808l40.289 8.304-18.486-15.731 56.001 12.427c24.227 43.398 28.142 51.226 28.142 51.226l-25.007-3.825 35.528 46.609-34.161-5.039c0 0 19.13 31.493 43.725 71.802 21.375 35.031 30.781 64.465 30.781 64.465l-30.781-7.779c0 0 17.836 29.022 23.229 36.531 7.496 10.431 18.26 36.838 18.26 36.838l-34.278-10.209c0 0 26.609 39.411 35.149 52.731 1.423 2.221 2.856 4.557 4.287 6.973zM662.806 442.199c-3.436 4.316-21.203 29.201-21.203 29.201l29.013-3.909c0 0-23.712 17.93-40.365 45.917-16.363 27.499-18.996 32.423-18.996 32.423l15.611-1.951-22.881 28.37 21.323-2.551c0 0-12.428 19.253-28.405 43.893-13.884 21.414-20.232 39.553-20.232 39.553l17.929-6.989c0 0-10.243 20.415-13.724 24.991-4.838 6.358-11.979 22.591-11.979 22.591l21.485-5.764c0 0-17.214 24.048-22.75 32.184-11.514 16.926-24.178 44.793-24.178 44.793l10.237-1.288c0 0-10.967 16.763-15.998 25.423-5.477 9.422-17.638 38.702-17.638 38.702s-10.906-36.349-16.498-49.432c-5.781-13.525-22.256-40.969-22.256-40.969l10.555 2.639c0 0-1.59-1.188-3.258-5.183-0.43-1.029-6.911-10.18-9.738-14.151 0.227-0.442 0.454-0.886 0.683-1.329l8.568 2.142c0 0 2.523-4.439-0.595-13.371 16.472-29.772 36.069-57.139 36.069-57.139l-34.231 5.515c0 0 5.941-20.724 18.881-43.997 22.954-41.288 47.032-53.725 47.032-53.725l-36.875 4.925c0 0 13.736-45.493 31.078-78.365 15.379-29.15 32.781-50.481 42.044-63.459 7.361-1.745 13.733-3.165 13.733-3.165l-14.519 16.799c0 0 29.313-7.113 38.899-7.948 11.613-1.011 45.891 0.57 45.891 0.57s-3.747 2.795-12.711 14.053zM488.663 400.565c0 0 4.34-13.477 10.513-30.334l-1.95 28.635-8.563 1.699zM431.704 703.88l1.998 0.442c-0.217 0.449-0.432 0.898-0.647 1.347-0.825-1.096-1.351-1.79-1.351-1.79zM478.891 565.516c0.005-0.005 0.009-0.010 0.014-0.015-0.005 0.005-0.009 0.011-0.014 0.015 0 0 0 0 0 0zM561.842 524.923h13.999l-15.223 2.328c0-0.001 0.28-0.561 1.225-2.328zM723.195 570.235c-2.394 3.182-14.725 21.492-14.725 21.492l20.859-3.394c0 0-16.757 13.408-28.222 33.935-11.265 20.169-13.068 23.775-13.068 23.775l11.227-1.717-15.951 20.926 15.338-2.262c0 0-8.589 14.139-19.632 32.238-9.597 15.729-13.82 28.944-13.82 28.944l13.82-3.492c0 0-8.008 13.030-10.429 16.401-3.366 4.684-8.199 16.54-8.199 16.54l15.39-4.584c0 0-11.947 17.694-15.781 23.676-7.976 12.443-16.564 32.804-16.564 32.804l7.361-1.131c0 0-7.582 12.315-11.043 18.663-3.766 6.908-11.963 28.279-11.963 28.279s-8.59-26.017-12.884-35.349c-4.439-9.646-16.871-29.126-16.871-29.126l7.669 1.696c0 0-1.171-0.827-2.454-3.676-0.423-0.94-8.282-11.312-8.282-11.312l7.668 1.697c0 0-0.306-3.959-5.827-16.401-7.246-16.33-19.632-34.667-19.632-34.667l14.11 2.262c0 0-1.191-8.464-6.489-18.837 0.538-0.881 1.075-1.743 1.61-2.578 5.311-8.284 21.859-32.794 21.859-32.794l-21.319 6.349c0 0 6.694-16.423 11.356-22.91 3.354-4.67 14.446-22.718 14.446-22.718l-19.143 4.838c0 0 9.197-18.306 22.49-40.091 15.296-25.069 20.285-34.869 20.285-34.869l-17.97 2.659 21.417-28.486h-16.732l6.024-10.927 25.511 1.164c3.4-1.213-5.781 37.446 1.654 34.198 4.047-1.768 24.903-7.018 24.903-7.018l-10.146 12.41c0 0 21.013-5.712 27.915-6.504 8.361-0.959 33.129-0.495 33.129-0.495s-2.649 2.091-8.895 10.393zM478.891 565.516c-2.27-2.148-3.765-3.265-3.765-3.265l5.685 1.171c-0.628 0.669-1.264 1.361-1.907 2.078-0.004 0.006-0.009 0.011-0.013 0.016zM478.905 565.5c0.643-0.717 1.278-1.41 1.907-2.078v0c-0.628 0.668-1.264 1.361-1.907 2.078zM219.787 449.984c-0.007-0.013-0.014-0.026-0.022-0.040 0.007 0.014 0.015 0.027 0.022 0.040zM214.28 439.944c0.105 0.191 0.209 0.379 0.313 0.568v0c-0.104-0.188-0.207-0.377-0.313-0.568v0zM220.61 451.496c-0.043-0.079-0.086-0.157-0.129-0.238 0.044 0.080 0.086 0.158 0.129 0.238zM221.23 452.635v0c-0.054-0.099-0.109-0.2-0.164-0.301 0.054 0.098 0.112 0.204 0.164 0.301zM152.413 451.251c0.171 0.41 0.341 0.823 0.511 1.236l-0.141 1.97c0.302-0.040 0.598-0.082 0.895-0.124 7.124 17.585 13.141 30.917 13.141 30.917l-41.424-6.882c0 0 16.744 23.242 34.519 59.292 11.403 23.127 23.156 55.469 23.156 55.469l-27.159-3.292c0 0 12.895 7.296 26.336 28.562-3.808 6.388-6.9 14.338-10.241 21.865-5.522 12.442-5.827 16.401-5.827 16.401l7.668-1.697c0 0-7.859 10.372-8.282 11.312-1.282 2.85-2.454 3.676-2.454 3.676l7.669-1.696c0 0-12.432 19.48-16.871 29.126-4.294 9.332-12.884 35.349-12.884 35.349s-8.197-21.371-11.963-28.279c-3.461-6.348-11.043-18.663-11.043-18.663l7.361 1.131c0 0-8.588-20.361-16.564-32.804-3.834-5.981-15.781-23.676-15.781-23.676l15.39 4.584c0 0-4.833-11.857-8.199-16.54-2.421-3.371-10.429-16.401-10.429-16.401l13.82 3.492c0 0-4.224-13.216-13.82-28.944-11.043-18.099-19.632-32.238-19.632-32.238l15.338 2.262-15.951-20.926 11.227 1.717c0 0-1.802-3.606-13.068-23.775-11.465-20.526-28.222-33.935-28.222-33.935l20.859 3.394c0 0-12.331-18.31-14.725-21.492-6.246-8.302-8.895-10.393-8.895-10.393s24.769-0.463 33.129 0.495c6.902 0.792 27.915 6.504 27.915 6.504l-10.146-12.41c0 0 20.856 5.251 24.903 7.018 7.434 3.248 11.594 5.068 14.994 6.282l-5.208-37.155c6.996 6.531 22.056 19.947 30.098 39.267zM181.44 317.975c5.332 7.088 32.796 47.868 32.796 47.868l-46.46-7.559c0 0 37.324 29.863 62.859 75.581 25.090 44.921 29.106 52.953 29.106 52.953l-19.653-3.825 30.843 46.609-34.831-7.715c0 0 19.13 34.169 43.725 74.479 21.375 35.031 30.781 64.466 30.781 64.466l-30.781-7.78c0 0 17.836 29.022 23.229 36.531 7.496 10.431 18.26 36.839 18.26 36.839l-34.278-10.21c0 0 26.609 39.411 35.149 52.732 17.764 27.714 36.893 73.063 36.893 73.063l-16.397-2.52c0 0 16.889 27.427 24.596 41.566 8.389 15.387 26.645 62.984 26.645 62.984s19.13-57.946 28.695-78.73c9.887-21.485 37.577-64.871 37.577-64.871l-17.080 3.777c0 0 2.609-1.841 5.464-8.188 0.942-2.094 18.448-25.194 18.448-25.194l-17.081 3.779c0 0 0.683-8.818 12.981-36.53 16.138-36.371 43.727-77.212 43.727-77.212l-31.427 5.038c0 0 2.732-19.467 15.030-43.086 21.816-41.9 40.283-52.316 40.283-52.316l-26.075 4.449c0 0 13.082-48.546 29.518-81.881 25.621-51.962 47.826-79.674 47.826-79.674l-59.709 11.848c0 0 9.721-30.192 20.764-56.724 16.91-40.625 47.143-63.143 47.143-63.143l-58.074 11.969 26.645-22.674-110.682 24.563c0 0-12.648 2.996-27.786 5.003l7.29-101.997h-69.689l6.141 90.159c-7.572-2.702-16.84-6.758-33.396-13.991-9.014-3.937-55.465-15.63-55.465-15.63l22.6 27.641c0 0-46.804-12.723-62.174-14.486-18.621-2.135-73.788-1.103-73.788-1.103s5.9 4.656 19.811 23.146z" />
<glyph unicode="&#xe925;" glyph-name="Country" horiz-adv-x="819" d="M292.308 836.405v13.703c11.148 6.523 18.517 18.437 18.517 32.073 0 20.454-16.581 37.035-37.035 37.035s-37.035-16.581-37.035-37.035c0-13.636 7.37-25.551 18.343-31.979l0.175-0.095v-607.691h-82.221c0 0 0 0 0 0-2.98 0-5.395-2.416-5.395-5.395 0 0 0 0 0 0v0-49.866c0-2.98 2.416-5.396 5.395-5.396h201.508c2.98 0 5.396 2.416 5.396 5.396v0 49.866c0 2.98-2.416 5.395-5.396 5.395 0 0 0 0 0 0h-82.253v359.435c136.464 63.429 220.988-70.772 359.236-2.25v234.553c-138.245-68.525-222.77 65.675-359.236 2.249z" />
<glyph unicode="&#xe926;" glyph-name="Culture" d="M981.402 732.211c-42.486 0-85.002-42.496-169.984-42.496-85.002 0-127.488 42.496-170.004 42.496-20.019 0-42.486-21.248-42.486-42.496v-297.472c0-94.177 42.486-212.49 212.49-212.49 169.984 0 212.47 118.313 212.47 212.49v297.472c0 21.248-22.446 42.496-42.486 42.496zM662.682 530.35c0 29.348 23.777 53.125 53.125 53.125 29.327 0 53.115-23.788 53.115-53.125s-23.777-53.125-53.115-53.125c-29.348 0-53.125 23.788-53.125 53.125zM811.418 264.745c-106.25 0-127.488 84.982-127.488 84.982h254.976c0 0-21.248-84.982-127.488-84.982zM907.039 477.225c-29.338 0-53.125 23.788-53.125 53.125 0 29.348 23.788 53.125 53.125 53.125 29.317 0 53.115-23.788 53.115-53.125s-23.798-53.125-53.115-53.125zM480.666 393.912c10.496-1.085 21.565-1.669 33.26-1.669 15.247 0 29.174 0.717 42.516 2.632v124.826h-170.004c0 0 21.248 84.992 127.488 84.992 21.268 0 29.604-3.144 42.516-7.967v92.959c0 38.953 15.524 71.506 42.486 84.992 42.486 21.248 59.638 12.667 85.002 0 42.486-21.248 42.486-21.248 42.486-21.248v148.746c0 21.248-22.467 42.496-42.486 42.496-42.506 0-85.002-42.496-170.004-42.496-84.982 0-127.488 42.496-169.974 42.496v0.020c-20.040 0-42.486-21.248-42.486-42.496v-297.472c0-37.786 7.086-79.36 26.276-115.712 7.526-3.154 15.012-6.492 22.405-10.25 51.436-26.225 94.935-54.63 130.519-84.849zM418.314 795.955c29.338 0 53.125-23.788 53.125-53.125s-23.788-53.125-53.125-53.125c-29.338 0-53.105 23.788-53.105 53.125s23.767 53.125 53.105 53.125zM207.432 482.816c-93.348 0-169.943-46.766-190.413-86.938-29.409-57.764-22.589-115.794 35.154-145.193 57.754-29.409 79.288-58.532 57.221-101.878-29.399-57.733-8.141-123.095 49.613-152.515 67.41-34.324 128.43-48.978 181.32-48.978 94.392 0 162.939 46.633 195.912 111.391 88.228 173.271-26.747 304.538-199.977 392.776-43.95 22.374-87.992 31.334-128.829 31.334zM143.288 322.499c-7.148-14.070-21.371-22.149-36.137-22.149-6.175 0-12.452 1.413-18.34 4.424-19.937 10.158-27.873 34.519-17.715 54.456 7.148 14.060 21.35 22.129 36.106 22.129 6.185 0 12.462-1.413 18.35-4.424 19.948-10.158 27.894-34.519 17.736-54.436zM253.788 75.305c-8.581-16.855-25.672-26.563-43.366-26.563-7.434 0-14.95 1.7-22.006 5.304-23.921 12.165-33.423 41.441-21.258 65.382 8.581 16.855 25.661 26.552 43.346 26.552 7.434 0 14.961-1.69 22.026-5.294 23.91-12.196 33.434-41.482 21.258-65.382zM288.471 357.663c-7.158-14.070-21.381-22.149-36.137-22.149-6.195 0-12.472 1.413-18.35 4.424-19.927 10.158-27.863 34.519-17.705 54.477 7.148 14.019 21.361 22.108 36.116 22.108 6.175 0 12.462-1.413 18.35-4.424 19.937-10.138 27.863-34.54 17.725-54.436zM417.864 219.013c7.168 14.070 21.371 22.129 36.127 22.149 6.185 0 12.472-1.434 18.36-4.424 19.927-10.158 27.853-34.56 17.715-54.477-7.158-14.039-21.371-22.129-36.127-22.129-6.185 0-12.462 1.413-18.35 4.424-19.948 10.158-27.884 34.509-17.725 54.456zM367.892 357.704c6.185 0 12.472-1.423 18.36-4.434 19.927-10.117 27.853-34.519 17.695-54.436-7.148-14.060-21.361-22.149-36.116-22.149-6.175 0-12.452 1.444-18.34 4.424-19.937 10.158-27.863 34.55-17.715 54.487 7.158 14.039 21.361 22.108 36.116 22.108z" />
<glyph unicode="&#xe927;" glyph-name="Euro" horiz-adv-x="819" d="M581.632 622.338v141.054c0 32.268-63.881 49.152-126.976 49.152s-126.976-16.884-126.976-49.152v-67.515c-11.996 1.299-24.435 1.979-36.864 1.979-63.096 0-126.976-16.884-126.976-49.152v-196.608c0-32.268 61.816-49.152 122.88-49.152 23.608 0 52.556 3.107 73.134 7.764 21.754-72.499 88.051-122.452 164.434-122.452 94.856 0 172.032 77.172 172.032 172.032 0 73.394-45.905 137.768-114.688 162.050zM355.524 492.055c-5.343-1.371-9.727-2.339-16.332-3.395-3.056-0.488-6.184-0.928-9.377-1.324-12.096-1.5-29.015-2.472-43.096-2.472-68.576 0-106.496 19.376-106.496 32.768v39.725c22.405-15.396 64.621-23.341 106.496-23.341 14.696 0 32.408 1.020 45.112 2.6 3.384 0.42 6.704 0.884 9.952 1.404 12.549 2.007 23.866 4.754 33.787 8.040-1.422-2.473-2.98-4.814-4.299-7.381-7.418-14.461-12.608-30.002-15.748-46.625zM417.792 648.704c0 0.765-0.207 1.479-0.278 2.226 12.966-1.908 26.368-2.226 33.046-2.226 14.696 0 32.408 1.020 45.112 2.6 3.384 0.42 6.704 0.884 9.952 1.404 26.228 4.197 46.59 11.219 59.624 20.124v-45.679c-51.097 12.569-102.165 1.583-142.936-28.538-1.524-1.122-3.019-2.304-4.52-3.491v53.58zM454.656 796.16c67.512 0 110.592-19.408 110.592-32.768 0-9.216-21.808-22.504-62.216-28.972-3.056-0.488-6.184-0.928-9.377-1.324-12.096-1.5-29.015-2.472-43.096-2.472-68.576 0-106.496 19.376-106.496 32.768 0 13.36 43.080 32.768 110.592 32.768zM344.064 737.581c22.405-15.396 64.621-23.341 106.496-23.341 14.696 0 32.408 1.020 45.112 2.6 3.384 0.42 6.704 0.884 9.952 1.404 26.228 4.197 46.59 11.219 59.624 20.124v-40.513c0-9.216-21.808-22.504-62.216-28.972-3.056-0.488-6.184-0.928-9.377-1.324-12.096-1.5-29.015-2.472-43.096-2.472-17.865 0-33.912 1.802-43.653 4.824-12.85 11.336-35.954 19.261-62.843 23.711v43.957zM290.816 681.472c67.512 0 110.592-19.408 110.592-32.768 0-9.216-21.808-22.504-62.216-28.972-3.056-0.488-6.184-0.928-9.377-1.324-12.096-1.5-29.015-2.472-43.096-2.472-68.576 0-106.496 19.376-106.496 32.768 0 13.36 43.080 32.768 110.592 32.768zM180.224 622.893c22.405-15.396 64.621-23.341 106.496-23.341 14.696 0 32.408 1.020 45.112 2.6 3.384 0.42 6.704 0.884 9.952 1.404 26.2 4.192 46.592 11.192 59.624 20.083v-43.182c-2.177-2.189-4.154-4.389-6.105-6.581-10.264-8.444-30.684-15.613-56.111-19.681-3.056-0.488-6.184-0.928-9.377-1.324-12.096-1.5-29.015-2.472-43.096-2.472-68.576 0-106.496 19.376-106.496 32.768v39.725zM286.72 419.328c-68.576 0-106.496 19.376-106.496 32.768v39.725c22.405-15.396 64.621-23.341 106.496-23.341 14.696 0 32.408 1.020 45.112 2.6 3.384 0.42 6.704 0.884 9.952 1.404 4.332 0.694 7.807 1.357 11.146 2.093-0.428-5.141-0.674-9.877-0.674-14.289 0-11.009 1.23-22.316 3.537-33.695-19.436-4.359-46.721-7.265-69.073-7.265zM524.288 304.64c-71.832 0-133.928 48.768-151.016 118.592-3.072 12.552-4.632 25.020-4.632 37.056 0 4.42 0.24 9.176 0.736 14.532 0.305 3.304 0.832 6.536 1.457 10.408 2.6 16.16 7.655 31.629 15.016 45.969 5.368 10.448 11.68 20.060 18.76 28.564 4.608 5.539 9.952 10.996 16.201 16.567 0.032 0.029 0.623 0.56 0.655 0.588 3.305 2.912 6.864 5.78 10.577 8.524 27.016 19.952 58.912 30.496 92.248 30.496 13.488 0 27.296-1.904 41.040-5.656l2.295-0.608c1.312-0.341 2.632-0.677 3.912-1.085 64.84-20.644 108.4-80.24 108.4-148.3 0-85.824-69.824-155.648-155.648-155.648zM515.464 532.4c30.959 7.236 61.519-11.004 69.56-41.54 1.152-4.379 5.639-6.98 10.007-5.832 4.376 1.152 6.985 5.632 5.833 10.008-10.32 39.184-49.528 62.576-89.128 53.316-19.448-4.552-36.785-17.164-47.569-34.596-5.228-8.449-8.622-18.447-10.763-28.892h-27.42c-4.528 0-8.192-3.668-8.192-8.192s3.664-8.192 8.192-8.192h25.057c-0.626-8.377-0.48-16.701 0.232-24.576h-25.289c-4.528 0-8.192-3.668-8.192-8.192s3.664-8.192 8.192-8.192h27.803c0.229-1.046 0.395-2.195 0.646-3.2 7.103-28.572 29.592-51.228 57.304-57.716 5.847-1.372 11.688-2.028 17.432-2.028 33.152 0 62.896 21.948 71.696 55.344 1.152 4.375-1.456 8.856-5.833 10.007-4.36 1.136-8.847-1.448-10.007-5.832-8.049-30.548-38.616-48.783-69.56-41.54-21.537 5.042-39.047 22.657-44.886 44.964h53.709c4.528 0 8.192 3.668 8.192 8.192s-3.664 8.192-8.192 8.192h-56.536c-0.813 7.91-0.981 16.274-0.277 24.576h56.813c4.528 0 8.192 3.668 8.192 8.192s-3.664 8.192-8.192 8.192h-54.14c1.802 7.455 4.348 14.442 7.956 20.272 8.512 13.76 22.128 23.696 37.36 27.264z" />
<glyph unicode="&#xe928;" glyph-name="Wheat" horiz-adv-x="819" d="M748.749 795.341c54.067 54.067 49.971 144.179 49.971 144.179s-90.931 3.277-144.179-49.971-49.971-144.179-49.971-144.179 90.112-4.096 144.179 49.971zM565.248 761.754c15.565 74.547-36.864 148.275-36.864 148.275s-77.824-46.694-93.389-121.242 36.864-148.275 36.864-148.275 77.824 46.694 93.389 121.242zM620.954 706.048c-74.547-15.565-121.242-93.389-121.242-93.389s73.728-52.429 148.275-36.864c74.547 15.565 121.242 93.389 121.242 93.389s-73.728 51.61-148.275 36.864zM410.419 607.744c15.565 73.728-36.864 147.456-36.864 147.456s-77.824-46.694-93.389-121.242c-15.565-74.547 36.864-148.275 36.864-148.275s77.824 47.514 93.389 122.061zM466.944 551.219c-74.547-15.565-121.242-93.389-121.242-93.389s73.728-52.429 148.275-36.864c73.728 15.565 120.422 93.389 120.422 93.389s-73.728 52.429-147.456 36.864zM256.41 452.915c15.565 74.547-36.864 148.275-36.864 148.275s-77.824-46.694-93.389-121.242 36.864-148.275 36.864-148.275 77.824 46.694 93.389 121.242zM312.115 397.21c-74.547-15.565-121.242-93.389-121.242-93.389s73.728-52.429 148.275-36.864c74.547 15.565 121.242 93.389 121.242 93.389s-73.728 52.429-148.275 36.864zM20.663 204.697l112.955 112.955 43.444-43.444-112.955-112.955-43.444 43.444z" />
<glyph unicode="&#xe929;" glyph-name="Army" horiz-adv-x="819" d="M168.133 746.189c-0.164-70.943 12.943-363.725 241.5-493.158 228.884 129.597 241.664 422.216 241.336 493.158-96.338 2.621-207.585 77.169-241.336 101.417-33.751-24.248-145.162-98.796-241.5-101.417zM558.563 591.524l-74.547-72.581 17.695-102.564-92.078 48.333-92.242-48.333 17.695 102.564-74.547 72.581 102.892 14.909 46.203 93.389 46.039-93.389 102.892-14.909zM727.974 819.261c-17.367 4.85-101.482-40.796-318.341 124.355-1.704-1.098-174.424-137.183-288.358-126.321l-29.983 1.966c-27.886-524.124 312.394-654.934 318.341-662.077 3.015 3.621 345.653 149.225 318.341 662.077zM409.633 213.217c-1.327 1.638-295.666 131.613-272.794 564.593l16.548-1.147c81.805-6.046 191.365 59.458 256.246 109.445 173.965-133.562 267.633-106.889 272.63-108.298 22.921-430.637-271.303-562.954-272.63-564.593z" />
<glyph unicode="&#xe92a;" glyph-name="Work" horiz-adv-x="819" d="M681.427 693.080h-142v39.223c0 17.9-14.557 32.457-32.449 32.457h-194.748c-17.9 0-32.457-14.557-32.457-32.457v-39.223h-142c-11.952 0-21.643-9.691-21.643-21.643v-313.754c0-11.944 9.691-21.635 21.643-21.635h543.654c11.952 0 21.651 9.691 21.651 21.635v313.754c-0.008 11.952-9.699 21.643-21.651 21.643zM301.408 732.295c0 5.964 4.858 10.813 10.822 10.813h194.748c5.972 0 10.813-4.85 10.813-10.813v-39.223h-216.383v39.223zM116.13 622.752h586.94v-18.94h-586.94v18.94zM354.828 590.295h109.543v-50.037h-109.543v50.037z" />
<glyph unicode="&#xe92b;" glyph-name="Rail" horiz-adv-x="819" d="M48.333 332.493c-7.373 0-13.926-4.915-15.565-11.469l-11.469-38.502c-3.277-10.65 4.915-21.299 15.565-21.299h54.067l21.299 71.27h-63.898zM280.166 332.493l-12.288-71.27h283.443l-12.288 71.27zM797.901 282.522l-11.469 38.502c-1.638 7.373-9.011 11.469-15.565 11.469h-63.898l21.299-71.27h54.067c10.65 0 18.842 10.65 15.565 21.299zM89.293 430.797h51.61l21.299 71.27h-61.44c-7.373 0-13.926-4.915-15.565-12.288l-11.469-38.502c-4.096-10.65 4.096-20.48 15.565-20.48zM297.37 430.797h224.461l-13.107 71.27h-198.246zM678.298 430.797h51.61c11.469 0 18.842 10.65 15.565 21.299l-11.469 38.502c-1.638 7.373-9.011 12.288-15.565 12.288h-61.44l21.299-72.090zM139.264 599.552h50.79l21.299 71.27h-60.621c-7.373 0-13.926-4.915-15.565-12.288l-12.288-37.683c-2.458-10.65 4.915-21.299 16.384-21.299zM339.968 670.822l-13.107-71.27h165.478l-13.107 71.27zM629.146 599.552h50.79c10.65 0 18.842 10.65 15.565 21.299l-11.469 38.502c-2.458 7.373-9.011 12.288-15.565 12.288h-60.621l21.299-72.090zM189.235 768.307h49.971l21.299 71.27h-59.802c-7.373 0-13.926-4.915-15.565-12.288l-11.469-38.502c-3.277-9.83 4.915-20.48 15.565-20.48zM462.029 768.307l-12.288 71.27h-80.282l-12.288-71.27zM629.965 768.307c11.469 0 18.842 10.65 15.565 21.299l-11.469 38.502c-1.638 7.373-8.192 12.288-15.565 12.288h-59.802l21.299-71.27h49.971zM344.064 923.955h-26.214c-7.373 0-13.926-4.915-15.565-12.288l-208.896-713.523c-3.277-10.65 4.915-21.299 15.565-21.299h109.773c8.192 0 14.746 5.734 16.384 13.926l125.338 713.523c1.638 10.65-5.734 19.661-16.384 19.661zM516.915 912.486c-2.458 7.373-8.192 12.288-15.565 12.288h-26.214c-10.65 0-18.022-9.011-16.384-19.661l125.338-714.342c1.638-8.192 8.192-13.926 16.384-13.926h109.773c11.469 0 18.842 10.65 15.565 21.299l-208.896 714.342z" />
<glyph unicode="&#xe92c;" glyph-name="Cross" horiz-adv-x="819" d="M469.402 749.466h-119.603v-139.264h-139.264v-119.603h139.264v-139.264h119.603v139.264h139.264v119.603h-139.264zM409.6 919.040c-203.162 0-368.64-165.478-368.64-368.64s165.478-368.64 368.64-368.64 368.64 165.478 368.64 368.64-165.478 368.64-368.64 368.64zM409.6 212.89c-185.958 0-337.51 151.552-337.51 337.51s151.552 337.51 337.51 337.51 337.51-151.552 337.51-337.51-151.552-337.51-337.51-337.51z" />
<glyph unicode="&#xe92d;" glyph-name="Education" horiz-adv-x="1114" d="M195.882 319.988v264.969l311.246-128.121c16.012-6.51 33.021-6.405 49.007 0.118l319.12 131.323v-268.289c-0.052-4.226-0.892-8.531-2.664-12.665-0.157-0.407-61.094-145.34-333.951-166.365-1.785-0.171-3.635-0.197-5.486-0.052-248.117 18.899-321.325 140.195-332.875 162.782-2.796 4.804-4.397 10.368-4.397 16.301zM19.988 752.109l499.305 205.463c8.19 3.36 16.957 3.11 24.556 0l499.292-205.463c20.107-8.268 26.314-33.612 12.849-50.253v-309.408l53.43-85.532c13.492-21.695-2.507-49.532-27.483-49.453l-116.742-0.079c-26.59 0-41.434 30.094-26.433 51.211l52.366 83.826v278.487l-447.28-184.057c-8.19-3.36-16.957-3.11-24.556 0l-499.305 205.45c-26.918 11.051-26.354 48.98 0 59.808z" />
<glyph unicode="&#xe92e;" glyph-name="Hospital" horiz-adv-x="819" d="M596.378 513.536h-181.862v120.422h-121.242v182.682h132.71v121.242h170.394v-120.422h120.422v-182.682h-120.422v-121.242zM432.538 532.378h145.818v120.422h120.422v145.818h-120.422v120.422h-133.53v-120.422h-132.71v-145.818h120.422v-120.422zM476.774 309.555h-46.694c-4.915 0-9.011 4.096-9.011 9.011s4.096 9.011 9.011 9.011h46.694c43.418 0 85.197 13.107 120.422 36.864l13.926 9.83c8.192 5.734 11.469 16.384 6.554 24.576v0c-18.842 17.203-45.875 22.938-71.27 15.565-56.525-17.203-102.4 3.277-104.858 4.096 0 0-0.819 0-0.819 0.819-99.123 62.259-200.704 63.078-285.901 1.638-4.096-3.277-9.83-1.638-13.107 2.458s-1.638 9.83 2.458 13.107c91.75 65.536 200.704 64.717 306.381-0.819 4.915-1.638 44.237-17.203 90.931-3.277 31.949 9.83 66.355 2.458 89.293-19.661 0.819-0.819 1.638-1.638 1.638-1.638 0.819-0.819 0.819-1.638 1.638-1.638 9.83-17.203 4.096-39.322-12.288-50.79l-13.926-9.83c-39.322-25.395-84.378-39.322-131.072-39.322zM456.294 216.986c-4.915 0-10.65 0-15.565 0.819-183.501 9.83-290.816 21.299-292.454 21.299-4.915 0.819-9.011 4.915-8.192 9.83s4.915 9.011 9.83 8.192c0.819 0 108.134-11.469 291.635-21.299 46.694-2.458 94.208 7.373 136.806 30.31l211.354 118.784c7.373 4.096 12.288 13.107 11.469 21.299-1.638 14.746-12.288 27.853-27.853 32.768-6.554 1.638-17.203 1.638-30.31-0.819-12.288-2.458-24.576-5.734-36.864-10.65l-69.632-27.853c-4.915-1.638-9.83 0-12.288 4.915-1.638 4.915 0 9.83 4.915 12.288l69.632 27.853c13.926 5.734 27.853 9.83 40.96 11.469 17.203 3.277 30.31 3.277 39.322 0 22.118-7.373 37.683-26.214 40.141-48.333 1.638-16.384-6.554-31.949-20.48-39.322l-211.354-118.784c-40.96-21.299-86.016-32.768-131.072-32.768zM123.699 162.918h-114.688c-4.915 0-9.011 4.096-9.011 9.011 0 5.734 4.096 9.83 9.011 9.83h114.688c7.373 0 13.107 5.734 13.107 13.107v295.731c0 7.373-5.734 13.107-13.107 13.107h-114.688c-4.915 0-9.011 4.096-9.011 9.011s4.096 9.011 9.011 9.011h114.688c17.203 0 31.949-13.926 31.949-31.949v-295.731c0-16.384-13.926-31.13-31.949-31.13z" />
<glyph unicode="&#xe92f;" glyph-name="Lightning" horiz-adv-x="819" d="M678.4 637.658h-212.196l84.196 322.342-409.6-496.858h212.196l-84.196-322.342z" />
<glyph unicode="&#xe930;" glyph-name="Happy" horiz-adv-x="819" d="M409.6 922.104c-203.26 0-368.64-165.38-368.64-368.648s165.38-368.632 368.64-368.632c203.26 0 368.64 165.364 368.64 368.632s-165.38 368.648-368.64 368.648zM409.6 250.925c-166.814 0-302.539 135.709-302.539 302.531s135.717 302.539 302.539 302.539 302.531-135.717 302.531-302.539c0-166.814-135.717-302.531-302.531-302.531zM528.351 711.848c-28.525 0-51.749-23.224-51.749-51.765 0-28.549 23.224-51.765 51.749-51.765 28.557 0 51.773 23.216 51.773 51.765 0 28.541-23.216 51.765-51.773 51.765zM290.824 711.848c-28.533 0-51.757-23.224-51.757-51.765 0-28.549 23.224-51.765 51.757-51.765 28.557 0 51.773 23.216 51.773 51.765 0 28.541-23.216 51.765-51.773 51.765zM593.256 430.928c-58.614-55.288-122.143-82.395-188.785-80.454-104.784 3.17-176.955 78.651-179.978 81.871-12.435 13.246-11.796 34.177 1.425 46.645 12.714 12.001 34.66 11.387 46.662-1.286 2.384-2.482 59.032-61.014 137.921-61.014 47.284 0 93.536 20.972 137.413 62.333 6.152 5.816 14.197 9.011 22.659 9.011 9.060 0 17.842-3.777 24.068-10.387 6.054-6.414 9.249-14.819 8.995-23.634-0.27-8.823-3.949-17.023-10.379-23.085z" />
<glyph unicode="&#xe931;" glyph-name="Edit" d="M583.27 868.25h-142.541c-175.309 0-317.85-142.541-317.85-317.85s142.541-317.85 317.85-317.85h142.541c175.309 0 317.85 142.541 317.85 317.85s-142.541 317.85-317.85 317.85zM259.535 436.987l60.502 101.54 57.208-112.286-117.71 10.746zM397.464 434.4l-58.941 115.688 259.66 132.293 58.942-115.689-259.661-132.292zM676.476 576.552l-58.942 115.688 58.27 29.688 58.941-115.688-58.269-29.688z" />
<glyph unicode="&#xe932;" glyph-name="Pen" horiz-adv-x="819" d="M573.44 853.504l-70.144-70.144 139.264-139.264 70.144 70.144-139.264 139.264zM480 760.064l-312.576-312.576 139.264-139.264 312.576 312.576-139.264 139.264zM146.176 422.144l-39.68-174.848 174.848 39.68-135.168 135.168z" />
<glyph unicode="&#xe933;" glyph-name="Menu" horiz-adv-x="819" d="M475.801 755.2c0-0.003 0-0.007 0-0.010 0-36.562-29.639-66.201-66.201-66.201s-66.201 29.639-66.201 66.201c0 0.004 0 0.007 0 0.011v-0.001c0 0.003 0 0.007 0 0.010 0 36.562 29.639 66.201 66.201 66.201s66.201-29.639 66.201-66.201c0-0.004 0-0.007 0-0.011v0.001zM475.798 550.4c0-0.003 0-0.007 0-0.010 0-36.562-29.639-66.201-66.2-66.201s-66.2 29.639-66.2 66.201c0 0.004 0 0.007 0 0.011v-0.001c0 0.003 0 0.007 0 0.010 0 36.562 29.639 66.201 66.2 66.201s66.2-29.639 66.2-66.201c0-0.004 0-0.007 0-0.011v0.001zM475.801 345.6c0-0.003 0-0.007 0-0.010 0-36.562-29.639-66.201-66.201-66.201s-66.201 29.639-66.201 66.201c0 0.004 0 0.007 0 0.011v-0.001c0 0.003 0 0.007 0 0.010 0 36.562 29.639 66.201 66.201 66.201s66.201-29.639 66.201-66.201c0-0.004 0-0.007 0-0.011v0.001z" />
<glyph unicode="&#xe934;" glyph-name="Menu-2" horiz-adv-x="819" d="M614.3 381.798c-0.003 0-0.007 0-0.010 0-36.562 0-66.201 29.639-66.201 66.201s29.639 66.201 66.201 66.201c0.004 0 0.007 0 0.011 0h-0.001c0.003 0 0.007 0 0.010 0 36.562 0 66.201-29.639 66.201-66.201s-29.639-66.201-66.201-66.201c-0.004 0-0.007 0-0.011 0h0.001zM409.5 381.801c-0.003 0-0.007 0-0.010 0-36.562 0-66.201 29.639-66.201 66.2s29.639 66.2 66.201 66.2c0.004 0 0.007 0 0.011 0h-0.001c0.003 0 0.007 0 0.010 0 36.562 0 66.201-29.639 66.201-66.2s-29.639-66.2-66.201-66.2c-0.004 0-0.007 0-0.011 0h0.001zM204.7 381.798c-0.003 0-0.007 0-0.010 0-36.562 0-66.201 29.639-66.201 66.201s29.639 66.201 66.201 66.201c0.004 0 0.007 0 0.011 0h-0.001c0.003 0 0.007 0 0.010 0 36.562 0 66.201-29.639 66.201-66.201s-29.639-66.201-66.201-66.201c-0.004 0-0.007 0-0.011 0h0.001z" />
</font>
</defs>
</svg>
