<svg xmlns="http://www.w3.org/2000/svg" xmlns:xlink="http://www.w3.org/1999/xlink" version="1.1" x="0px" y="0px" viewBox="0 0 100 125" enable-background="new 0 0 100 100" xml:space="preserve"><g><path d="M50,4.626c-24.812,0-45,20.188-45,45.001s20.188,44.999,45,44.999c24.812,0,45-20.186,45-44.999S74.812,4.626,50,4.626z    M50,86.557c-20.363,0-36.931-16.566-36.931-36.93c0-20.364,16.567-36.931,36.931-36.931s36.93,16.567,36.93,36.931   C86.93,69.99,70.363,86.557,50,86.557z"/><g><path d="M64.496,30.292c-3.482,0-6.317,2.835-6.317,6.319c0,3.485,2.835,6.319,6.317,6.319c3.486,0,6.32-2.834,6.32-6.319    C70.816,33.127,67.982,30.292,64.496,30.292z"/><path d="M35.501,30.292c-3.483,0-6.318,2.835-6.318,6.319c0,3.485,2.835,6.319,6.318,6.319c3.486,0,6.32-2.834,6.32-6.319    C41.821,33.127,38.987,30.292,35.501,30.292z"/></g><path d="M72.419,64.584c-7.155,6.749-14.91,10.058-23.045,9.821c-12.791-0.387-21.601-9.601-21.97-9.994   c-1.518-1.617-1.44-4.172,0.174-5.694c1.552-1.465,4.231-1.39,5.696,0.157c0.291,0.303,7.206,7.448,16.836,7.448   c5.772,0,11.418-2.56,16.774-7.609c0.751-0.71,1.733-1.1,2.766-1.1c1.106,0,2.178,0.461,2.938,1.268   c0.739,0.783,1.129,1.809,1.098,2.885C73.653,62.843,73.204,63.844,72.419,64.584z"/></g><text x="0" y="115" fill="#000000" font-size="5px" font-weight="bold" font-family="'Helvetica Neue', Helvetica, Arial-Unicode, Arial, Sans-serif">Created by Daryl Vandemont</text><text x="0" y="120" fill="#000000" font-size="5px" font-weight="bold" font-family="'Helvetica Neue', Helvetica, Arial-Unicode, Arial, Sans-serif">from the Noun Project</text></svg>